<svg width="30" height="30" viewBox="0 0 30 30" fill="none" xmlns="http://www.w3.org/2000/svg">
<rect width="29.5481" height="30" fill="#FF0000" fill-opacity="0.01"/>
<path fill-rule="evenodd" clip-rule="evenodd" d="M24.116 12.6L25.6477 12.888C26.1973 13.0131 26.5893 13.5066 26.5933 14.0784V15.9312C26.585 16.4994 26.1939 16.9877 25.6477 17.112L24.116 17.4C23.5923 17.5421 23.1618 17.9201 22.9479 18.4257C22.7339 18.9313 22.7602 19.5086 23.0191 19.992L23.8985 21.24C24.245 21.734 24.1848 22.4107 23.7567 22.8336L22.4802 24.12C22.0767 24.5086 21.4643 24.568 20.9957 24.264L19.7665 23.3712C19.2846 23.0772 18.6937 23.0334 18.1748 23.2532C17.656 23.473 17.271 23.9302 17.1379 24.4848L16.8448 26.04C16.7224 26.5946 16.2414 26.9916 15.6818 27H13.8569C13.2972 26.9916 12.8162 26.5946 12.6939 26.04L12.4102 24.4848C12.2703 23.9532 11.8979 23.5161 11.3999 23.2989C10.902 23.0816 10.3334 23.1083 9.85724 23.3712L8.62804 24.264C8.1434 24.6103 7.48309 24.5493 7.0679 24.12L5.79142 22.8336C5.36331 22.4107 5.30308 21.734 5.64959 21.24L6.52894 20.0688C6.81852 19.5795 6.86167 18.9796 6.64517 18.4528C6.42867 17.926 5.97833 17.5352 5.43212 17.4L3.90034 17.112C3.35074 16.9869 2.95877 16.4934 2.9548 15.9216V14.0688C2.96313 13.5006 3.35415 13.0123 3.90034 12.888L5.43212 12.6C5.95573 12.4579 6.38625 12.0799 6.60019 11.5743C6.81414 11.0687 6.78788 10.4914 6.52894 10.008L5.64959 8.76C5.30308 8.26604 5.36331 7.58929 5.79142 7.1664L7.0679 5.88C7.48309 5.45067 8.1434 5.38973 8.62804 5.736L9.81942 6.6288C10.2986 6.907 10.8782 6.94205 11.3865 6.72357C11.8948 6.50509 12.2734 6.05814 12.4102 5.5152L12.6939 3.96C12.817 3.40199 13.3031 3.00402 13.8663 3H15.6912C16.2509 3.00845 16.7318 3.40545 16.8542 3.96L17.1379 5.5152C17.2696 6.04931 17.6208 6.5003 18.1023 6.7536C18.6227 6.96127 19.2081 6.91528 19.6908 6.6288L20.92 5.736C21.4047 5.38973 22.065 5.45067 22.4802 5.88L23.7567 7.1664C24.1848 7.58929 24.245 8.26604 23.8985 8.76L23.0191 9.9312C22.7296 10.4205 22.6864 11.0204 22.9029 11.5472C23.1194 12.074 23.5697 12.4648 24.116 12.6ZM14.774 19.32C17.124 19.32 19.029 17.3859 19.029 15C19.029 12.6141 17.124 10.68 14.774 10.68C12.4241 10.68 10.5191 12.6141 10.5191 15C10.5191 17.3859 12.4241 19.32 14.774 19.32Z" fill="#0E1D25"/>
<mask id="mask0_1_504" style="mask-type:luminance" maskUnits="userSpaceOnUse" x="2" y="3" width="25" height="24">
<path fill-rule="evenodd" clip-rule="evenodd" d="M24.116 12.6L25.6477 12.888C26.1973 13.0131 26.5893 13.5066 26.5933 14.0784V15.9312C26.585 16.4994 26.1939 16.9877 25.6477 17.112L24.116 17.4C23.5923 17.5421 23.1618 17.9201 22.9479 18.4257C22.7339 18.9313 22.7602 19.5086 23.0191 19.992L23.8985 21.24C24.245 21.734 24.1848 22.4107 23.7567 22.8336L22.4802 24.12C22.0767 24.5086 21.4643 24.568 20.9957 24.264L19.7665 23.3712C19.2846 23.0772 18.6937 23.0334 18.1748 23.2532C17.656 23.473 17.271 23.9302 17.1379 24.4848L16.8448 26.04C16.7224 26.5946 16.2414 26.9916 15.6818 27H13.8569C13.2972 26.9916 12.8162 26.5946 12.6939 26.04L12.4102 24.4848C12.2703 23.9532 11.8979 23.5161 11.3999 23.2989C10.902 23.0816 10.3334 23.1083 9.85724 23.3712L8.62804 24.264C8.1434 24.6103 7.48309 24.5493 7.0679 24.12L5.79142 22.8336C5.36331 22.4107 5.30308 21.734 5.64959 21.24L6.52894 20.0688C6.81852 19.5795 6.86167 18.9796 6.64517 18.4528C6.42867 17.926 5.97833 17.5352 5.43212 17.4L3.90034 17.112C3.35074 16.9869 2.95877 16.4934 2.9548 15.9216V14.0688C2.96313 13.5006 3.35415 13.0123 3.90034 12.888L5.43212 12.6C5.95573 12.4579 6.38625 12.0799 6.60019 11.5743C6.81414 11.0687 6.78788 10.4914 6.52894 10.008L5.64959 8.76C5.30308 8.26604 5.36331 7.58929 5.79142 7.1664L7.0679 5.88C7.48309 5.45067 8.1434 5.38973 8.62804 5.736L9.81942 6.6288C10.2986 6.907 10.8782 6.94205 11.3865 6.72357C11.8948 6.50509 12.2734 6.05814 12.4102 5.5152L12.6939 3.96C12.817 3.40199 13.3031 3.00402 13.8663 3H15.6912C16.2509 3.00845 16.7318 3.40545 16.8542 3.96L17.1379 5.5152C17.2696 6.04931 17.6208 6.5003 18.1023 6.7536C18.6227 6.96127 19.2081 6.91528 19.6908 6.6288L20.92 5.736C21.4047 5.38973 22.065 5.45067 22.4802 5.88L23.7567 7.1664C24.1848 7.58929 24.245 8.26604 23.8985 8.76L23.0191 9.9312C22.7296 10.4205 22.6864 11.0204 22.9029 11.5472C23.1194 12.074 23.5697 12.4648 24.116 12.6ZM14.774 19.32C17.124 19.32 19.029 17.3859 19.029 15C19.029 12.6141 17.124 10.68 14.774 10.68C12.4241 10.68 10.5191 12.6141 10.5191 15C10.5191 17.3859 12.4241 19.32 14.774 19.32Z" fill="white"/>
</mask>
<g mask="url(#mask0_1_504)">
<rect width="29.5481" height="30" fill="#C1C0C9"/>
</g>
</svg>
