<svg width="25" height="20" viewBox="0 0 25 20" fill="none" xmlns="http://www.w3.org/2000/svg">
<path d="M21.9156 19.246C21.3087 19.3024 20.6974 19.2914 20.0929 19.2132C19.0866 18.9805 18.0443 18.1313 17.5638 17.1548C17.2689 16.583 17.1269 15.9438 17.1519 15.3C17.1246 14.9158 17.1769 14.53 17.3054 14.1671C17.5032 13.5842 17.8279 13.053 18.2558 12.6126C18.6837 12.1721 19.2039 11.8335 19.7785 11.6214C20.4185 11.4083 21.0998 11.3522 21.7657 11.4577C22.5804 11.616 23.3243 12.0305 23.8901 12.6415C24.3374 13.1092 24.6659 13.6788 24.8475 14.3017C24.9919 14.8038 25.0343 15.33 24.9723 15.8489C24.9102 16.3678 24.7449 16.8689 24.4863 17.3221C23.9226 18.284 22.902 19.0514 21.9228 19.246H21.9156ZM20.3494 17.8149C20.7722 17.9143 21.2101 17.931 21.6392 17.864C22.1925 17.732 22.686 17.4172 23.041 16.97C23.3959 16.5228 23.5918 15.9688 23.5975 15.3964C23.603 15.0529 23.5376 14.7119 23.4054 14.3952C23.2733 14.0784 23.0772 13.7927 22.8297 13.5561C22.478 13.1526 21.986 12.9001 21.455 12.8506C20.9045 12.7811 20.3458 12.87 19.8436 13.107C19.3355 13.3835 18.9367 13.8267 18.7135 14.3629C18.4904 14.8992 18.4563 15.4962 18.6169 16.0546C18.7338 16.4718 18.9541 16.8522 19.2572 17.1601C19.5602 17.468 19.9361 17.6933 20.3494 17.8149ZM5.74025 19.255C5.22982 19.2959 4.71697 19.2959 4.20654 19.255C3.87209 19.1907 3.54847 19.0787 3.24548 18.9223C2.61866 18.6052 2.08612 18.1271 1.70167 17.5364C1.31723 16.9457 1.0945 16.2633 1.05601 15.5582L1.03975 15.1254L0.893425 15.0891C0.521287 14.9945 0.154569 14.7618 0.0479862 14.5435C-0.02118 14.3386 -0.0154155 14.1155 0.064244 13.9144C0.183473 13.6434 0.544772 13.5034 1.13188 13.5034H1.49318L1.67383 13.2197C2.06962 12.6279 2.61029 12.1488 3.24367 11.8287C3.7881 11.5436 4.39312 11.3957 5.00681 11.3977C5.49811 11.3933 5.98536 11.4876 6.44007 11.6749C6.89478 11.8622 7.30784 12.1389 7.65513 12.4887C8.15781 12.9416 8.53188 13.5209 8.73903 14.1671C8.76353 14.2735 8.80567 14.3749 8.86368 14.4672C8.92819 14.4802 8.9933 14.4899 9.05878 14.4963L9.21775 14.5163L9.19607 14.3926C9.05652 13.8219 8.81138 13.2827 8.47348 12.8033C8.07158 12.2698 7.56643 11.8238 6.98854 11.4923C6.30568 11.1431 5.80528 11.0431 4.52809 10.9995C3.39181 10.9595 3.4189 10.9649 3.30148 10.7776C3.18226 10.5939 3.12827 10.3749 3.14828 10.1564C3.16828 9.93786 3.26111 9.73255 3.41168 9.57383C3.502 9.50654 3.53271 9.50473 5.37534 9.49382L7.24506 9.48291L7.33358 9.28652C7.51423 8.90465 8.43735 7.59721 8.50599 7.63722C8.52586 7.64995 9.07865 8.07 9.73441 8.57006L10.9267 9.47927L12.5742 9.49927C15.0744 9.53018 15.1702 9.55019 15.3635 10.0448C15.4411 10.2448 15.47 10.2757 15.5929 10.2757C16.0734 10.2757 17.0543 9.58474 17.5312 8.91192L17.6125 8.79555L17.5367 8.71372C17.3867 8.5537 15.1882 6.84621 14.229 6.13703C13.8442 5.85336 13.8063 5.83335 13.7358 5.87154C13.6238 5.93155 13.2553 6.39706 12.1678 7.84997C11.344 8.95375 11.1832 9.15014 11.1362 9.12286C10.9068 8.99921 9.28459 7.74632 8.98833 7.46447L8.77877 7.26444L8.83117 7.16261C8.94859 6.93531 10.8508 4.435 11.2049 4.05131C11.4252 3.82539 11.698 3.65822 11.9985 3.56489C12.2991 3.47156 12.618 3.455 12.9265 3.5167C13.1382 3.56336 13.3362 3.65927 13.5046 3.79673C13.8894 4.05859 15.0094 4.88778 16.7834 6.20613C17.1851 6.52219 17.6023 6.81775 18.0335 7.0917C18.0476 6.97605 18.0439 6.8589 18.0226 6.74438C18.0029 6.63342 17.9962 6.5205 18.0027 6.40797C18.4406 6.51723 18.8689 6.66196 19.2835 6.84075C21.184 7.58448 22.0746 8.45005 21.9933 9.47381C21.9193 9.91285 21.79 10.3406 21.6085 10.7467L21.5037 10.9958L20.978 11.0122C20.4871 11.0107 20.0003 11.1033 19.5437 11.285C18.9602 11.5225 18.4322 11.8796 17.9931 12.3335C17.5539 12.7874 17.2134 13.3282 16.9929 13.9216C16.9496 14.0435 16.861 14.3344 16.796 14.569C16.6316 15.1618 16.4781 15.4673 16.2017 15.7473C15.452 16.5074 14.5505 16.6674 10.7731 16.7165C9.8699 16.7275 9.1202 16.7365 9.11478 16.7329C9.12677 16.6443 9.1455 16.5568 9.17079 16.4711C9.19647 16.3842 9.21519 16.2954 9.22679 16.2056C9.16012 16.1906 9.09252 16.1803 9.02446 16.1747L8.83117 16.1565L8.7571 16.4238C8.50267 17.3328 7.93698 18.1218 7.16016 18.6513C6.73217 18.9414 6.25147 19.1435 5.74567 19.246L5.74025 19.255ZM4.38538 17.8476C4.87657 17.988 5.40048 17.9572 5.87212 17.7603C6.20915 17.6349 6.51506 17.4373 6.76866 17.1811C7.02226 16.9248 7.21748 16.6162 7.34081 16.2765C7.38293 16.185 7.41329 16.0884 7.43113 15.9892C7.4221 15.9801 6.34723 15.8328 5.03572 15.6619C3.7242 15.4909 2.60779 15.3455 2.54998 15.3364L2.44339 15.3218V15.5037C2.47155 16.055 2.67698 16.5821 3.0287 17.0057C3.38445 17.4212 3.85779 17.7175 4.38538 17.8549V17.8476ZM12.2364 14.0562C12.2364 14.3035 12.1894 14.2908 12.8073 14.1999C13.967 14.0308 14.5794 13.8362 15.0636 13.4725C15.3213 13.2755 15.5307 13.0217 15.676 12.7306C15.7753 12.5633 16.0048 12.2142 16.1818 11.9578C16.6659 11.2631 16.7075 11.1413 16.4311 11.2177C16.3588 11.2377 16.0698 11.3486 15.7952 11.4668C14.8757 11.8559 14.4132 11.9832 13.7394 12.036C13.0853 12.07 12.4299 12.0038 11.7956 11.8396C11.7082 11.8159 11.6196 11.797 11.5301 11.7832C11.5301 11.7832 11.6168 12.0014 11.7324 12.2596C12.0937 13.0834 12.2364 13.5689 12.2364 14.0598V14.0562ZM5.05559 13.9835C6.13949 14.1253 7.08067 14.2471 7.14209 14.2581C7.24145 14.2744 7.25048 14.269 7.23061 14.2126C7.02577 13.8041 6.71884 13.4563 6.34001 13.2034C6.0863 13.0276 5.79576 12.9131 5.49095 12.8688C4.87849 12.7466 4.24285 12.8472 3.6971 13.1525C3.51645 13.2634 3.03412 13.6889 3.06302 13.7143C3.09193 13.7398 3.96627 13.8435 5.05017 13.9835H5.05559ZM15.3273 4.03858C15.3111 4.10405 15.2876 4.11132 15.1214 4.11132C14.8143 4.11132 14.4945 3.98039 14.0104 3.65126C13.0837 3.02573 12.3358 2.9239 11.5319 3.33849L11.2988 3.45669L11.2031 3.24212C11.0214 2.84991 10.9494 2.41523 10.9949 1.9849C11.0404 1.55456 11.2017 1.14488 11.4614 0.799991C11.7463 0.444792 12.131 0.184329 12.5652 0.0526241C12.9705 -0.0175414 13.3847 -0.0175414 13.79 0.0526241C14.2051 0.178359 14.5756 0.421336 14.8576 0.752714C15.063 0.999254 15.2156 1.2859 15.3056 1.59464L15.3255 1.72011L15.116 1.69829C15.0021 1.68556 14.7655 1.65465 14.5903 1.62919C13.8677 1.5219 13.8333 1.54008 13.8514 2.13834C13.8514 2.45475 13.8749 2.54385 13.9183 2.58931C13.9616 2.63477 14.5975 2.77115 15.0925 2.81661C15.2731 2.83479 15.3129 2.84934 15.3291 2.90935C15.3526 3.28539 15.3526 3.66254 15.3291 4.03858H15.3273Z" fill="black"/>
</svg>
