<svg width="44" height="44" viewBox="0 0 44 44" fill="none" xmlns="http://www.w3.org/2000/svg">
<path fill-rule="evenodd" clip-rule="evenodd" d="M41.1304 5.5H2.86957C1.28461 5.5 0 6.78461 0 8.36957V35.1522C0 36.7371 1.28461 38.0217 2.86957 38.0217H41.1304C42.7154 38.0217 44 36.7371 44 35.1522V8.36957C44 6.78461 42.7154 5.5 41.1304 5.5Z" fill="#002E64"/>
<path fill-rule="evenodd" clip-rule="evenodd" d="M26.1456 25.0934C24.1445 26.5702 21.2444 27.3555 18.7469 27.3555C15.246 27.3555 12.0943 26.0614 9.7087 23.9073C9.52122 23.738 9.68861 23.5075 9.91339 23.6385C12.4874 25.1364 15.6697 26.0384 18.9573 26.0384C21.1745 26.0384 23.6127 25.5783 25.8557 24.6266C26.1934 24.4831 26.4765 24.8495 26.1456 25.0934Z" fill="#FE9B00"/>
<path fill-rule="evenodd" clip-rule="evenodd" d="M26.9777 24.1436C26.7214 23.8155 25.2856 23.9886 24.6409 24.0651C24.4458 24.0881 24.4152 23.9178 24.5912 23.7944C25.7362 22.99 27.6129 23.2224 27.8309 23.4912C28.0509 23.7629 27.7736 25.6443 26.7003 26.5425C26.5349 26.6803 26.378 26.6066 26.4516 26.4249C26.6936 25.8213 27.2341 24.4707 26.9777 24.1436Z" fill="#FE9B00"/>
<path fill-rule="evenodd" clip-rule="evenodd" d="M24.6869 18.1117V17.3303C24.6869 17.2117 24.7768 17.1323 24.8849 17.1323H28.3877C28.4996 17.1323 28.5895 17.2136 28.5895 17.3293V17.9998C28.5885 18.1127 28.4938 18.259 28.3255 18.4915L26.511 21.0827C27.1844 21.0664 27.897 21.1678 28.5092 21.5122C28.6478 21.5887 28.6852 21.7035 28.6957 21.8163V22.6504C28.6957 22.7652 28.5704 22.8982 28.4374 22.8293C27.3594 22.265 25.9285 22.2028 24.7357 22.836C24.6142 22.901 24.486 22.77 24.486 22.6552V21.8623C24.486 21.735 24.4879 21.5189 24.6161 21.3247L26.7185 18.3088H24.8878C24.7778 18.3088 24.6878 18.2284 24.6869 18.1117Z" fill="white"/>
<path fill-rule="evenodd" clip-rule="evenodd" d="M11.9087 22.9938H10.8431C10.7417 22.9871 10.6604 22.9106 10.6528 22.814L10.6537 17.3436C10.6537 17.2346 10.7456 17.1466 10.8594 17.1466H11.8522C11.9565 17.1523 12.0397 17.2308 12.0464 17.3302V18.0448H12.0665C12.3248 17.3541 12.8126 17.0318 13.4688 17.0318C14.1355 17.0318 14.5535 17.3541 14.8519 18.0448C15.1102 17.3541 15.6975 17.0318 16.324 17.0318C16.7716 17.0318 17.2595 17.2164 17.5579 17.6306C17.8965 18.0907 17.8267 18.7583 17.8267 19.3456L17.8257 22.7977C17.8257 22.9068 17.7339 22.9948 17.6201 22.9948H16.5555C16.4483 22.9881 16.3642 22.9029 16.3642 22.7987V19.8985C16.3642 19.668 16.3842 19.0931 16.3345 18.8741C16.2551 18.5058 16.016 18.4025 15.708 18.4025C15.4497 18.4025 15.1809 18.5756 15.0709 18.8511C14.9619 19.1275 14.9715 19.5876 14.9715 19.8985V22.7977C14.9715 22.9068 14.8796 22.9948 14.7658 22.9948H13.7012C13.5941 22.9881 13.5099 22.9029 13.5099 22.7987L13.5089 19.8985C13.5089 19.2882 13.6084 18.391 12.8528 18.391C12.0866 18.391 12.1162 19.2662 12.1162 19.8985V22.7977C12.1143 22.9058 12.0216 22.9938 11.9087 22.9938Z" fill="white"/>
<path d="M31.6064 17.0309C30.0645 17.0309 29.2084 18.3547 29.2084 20.0583C29.2084 21.7504 30.0539 23.1086 31.6064 23.1086C33.0985 23.1086 34.0436 21.7848 34.0436 20.1157C34.0436 18.3891 33.1875 17.0309 31.6064 17.0309ZM31.6064 21.9809C30.7704 21.9809 30.7809 20.5538 30.7809 19.8861C30.7809 19.2184 30.8306 18.1481 31.6169 18.1481C31.9545 18.1481 32.1937 18.2973 32.3132 18.678C32.4529 19.1151 32.472 19.668 32.472 20.1281C32.472 20.8292 32.4319 21.9809 31.6064 21.9809Z" fill="white"/>
<path fill-rule="evenodd" clip-rule="evenodd" d="M36.0944 22.9938H35.0326C34.9255 22.9871 34.8413 22.902 34.8413 22.7977L34.8394 17.3255C34.848 17.225 34.937 17.1466 35.0441 17.1466H36.0332C36.1259 17.1514 36.2025 17.2145 36.2226 17.2996V18.1366H36.2426C36.5411 17.3886 36.9591 17.0318 37.6946 17.0318C38.1719 17.0318 38.6397 17.2049 38.9381 17.6765C39.2174 18.1127 39.2174 18.8501 39.2174 19.3791V22.8207C39.205 22.9173 39.1189 22.9928 39.0127 22.9928H37.9443C37.8458 22.9861 37.7664 22.9144 37.7549 22.8207V19.8507C37.7549 19.2519 37.8247 18.3776 37.0882 18.3776C36.829 18.3776 36.5908 18.5508 36.4712 18.8148C36.322 19.1486 36.3019 19.4824 36.3019 19.8507V22.7958C36.3 22.9058 36.2082 22.9938 36.0944 22.9938Z" fill="white"/>
<path d="M23.7925 21.9914C23.5974 21.7226 23.3898 21.5036 23.3898 21.0033V19.3428C23.3898 18.6388 23.4395 17.9931 22.9211 17.5082C22.5127 17.117 21.8345 16.9783 21.3161 16.9783C20.3021 16.9783 19.1706 17.3571 18.9324 18.6101C18.9075 18.7431 19.0041 18.8129 19.0912 18.833L20.1242 18.9449C20.2208 18.9401 20.2907 18.8454 20.3098 18.7488C20.3988 18.3174 20.7603 18.1089 21.1668 18.1089C21.3859 18.1089 21.6355 18.1892 21.7647 18.3853C21.9139 18.6044 21.8938 18.9047 21.8938 19.1582V19.2969C21.2759 19.3657 20.4676 19.4126 19.8899 19.6661C19.2222 19.955 18.7535 20.5432 18.7535 21.4079C18.7535 22.5156 19.4518 23.0694 20.349 23.0694C21.1066 23.0694 21.5208 22.8905 22.1061 22.2946C22.2994 22.5749 22.3635 22.7107 22.7174 23.0044C22.7968 23.0474 22.8981 23.0426 22.9689 22.9795L22.9718 22.9824C23.1851 22.793 23.5715 22.4572 23.7887 22.2745C23.8757 22.2038 23.8604 22.088 23.7925 21.9914ZM21.8948 20.3816C21.8948 20.7967 21.9043 21.143 21.6958 21.5122C21.5265 21.8125 21.2568 21.9971 20.9583 21.9971C20.5499 21.9971 20.3108 21.6853 20.3108 21.2243C20.3108 20.3165 21.1248 20.1511 21.8957 20.1511V20.3816H21.8948Z" fill="white"/>
<path d="M9.82059 21.9914C9.62546 21.7226 9.4179 21.5036 9.4179 21.0033V19.3428C9.4179 18.6388 9.46764 17.9931 8.9492 17.5082C8.54077 17.117 7.86355 16.9783 7.34511 16.9783C6.3312 16.9783 5.19868 17.3571 4.96146 18.6101C4.93659 18.7431 5.0332 18.8129 5.12024 18.833L6.15329 18.9449C6.2499 18.9401 6.31972 18.8454 6.33885 18.7488C6.42781 18.3174 6.78938 18.1089 7.1959 18.1089C7.41494 18.1089 7.66459 18.1892 7.79372 18.3853C7.94294 18.6044 7.92285 18.9047 7.92285 19.1582V19.2969C7.30494 19.3657 6.49764 19.4126 5.91894 19.6661C5.25129 19.955 4.78259 20.5432 4.78259 21.4079C4.78259 22.5156 5.48085 23.0694 6.37807 23.0694C7.13564 23.0694 7.54981 22.8905 8.1352 22.2946C8.32842 22.5749 8.39251 22.7107 8.74642 23.0044C8.82581 23.0474 8.9272 23.0426 8.99798 22.9795L9.00085 22.9824C9.2132 22.793 9.60059 22.4572 9.81772 22.2745C9.90381 22.2038 9.88851 22.088 9.82059 21.9914ZM7.92285 20.3816C7.92285 20.7967 7.93242 21.143 7.7239 21.5122C7.55459 21.8125 7.28485 21.9971 6.98642 21.9971C6.57798 21.9971 6.33885 21.6853 6.33885 21.2243C6.33885 20.3165 7.15285 20.1511 7.92381 20.1511V20.3816H7.92285Z" fill="white"/>
</svg>
