<svg width="30" height="30" viewBox="0 0 30 30" fill="none" xmlns="http://www.w3.org/2000/svg">
<rect width="29.5481" height="30" fill="#FF0000" fill-opacity="0.01"/>
<path fill-rule="evenodd" clip-rule="evenodd" d="M3.93976 8C3.93976 5.79086 5.73062 4 7.93976 4H19.4415C21.6506 4 23.4415 5.79086 23.4415 8V8.38009C24.5299 8.38009 25.6084 9.48172 25.6084 10.5701V24.03C25.6084 25.1184 24.7268 26 23.6385 26H6.89457C5.26253 26 3.93976 24.6771 3.93976 23.045V8.38009V8ZM19.6987 17.0407C19.6987 18.1407 20.5803 19.0317 21.6686 19.0317C22.757 19.0317 23.6385 18.1407 23.6385 17.0407C23.6385 15.9407 22.757 15.0498 21.6686 15.0498C20.5803 15.0498 19.6987 15.9407 19.6987 17.0407ZM7.60662 6.19005C6.77819 6.19005 6.10662 6.86162 6.10662 7.69005V8.38009H21.2746V7.69005C21.2746 6.86162 20.6031 6.19005 19.7746 6.19005H7.60662Z" fill="black"/>
<mask id="mask0_1_508" style="mask-type:luminance" maskUnits="userSpaceOnUse" x="3" y="4" width="23" height="22">
<path fill-rule="evenodd" clip-rule="evenodd" d="M3.93976 8C3.93976 5.79086 5.73062 4 7.93976 4H19.4415C21.6506 4 23.4415 5.79086 23.4415 8V8.38009C24.5299 8.38009 25.6084 9.48172 25.6084 10.5701V24.03C25.6084 25.1184 24.7268 26 23.6385 26H6.89457C5.26253 26 3.93976 24.6771 3.93976 23.045V8.38009V8ZM19.6987 17.0407C19.6987 18.1407 20.5803 19.0317 21.6686 19.0317C22.757 19.0317 23.6385 18.1407 23.6385 17.0407C23.6385 15.9407 22.757 15.0498 21.6686 15.0498C20.5803 15.0498 19.6987 15.9407 19.6987 17.0407ZM7.60662 6.19005C6.77819 6.19005 6.10662 6.86162 6.10662 7.69005V8.38009H21.2746V7.69005C21.2746 6.86162 20.6031 6.19005 19.7746 6.19005H7.60662Z" fill="white"/>
</mask>
<g mask="url(#mask0_1_508)">
<rect width="29.5481" height="30" fill="#C1C0C9"/>
</g>
</svg>
