<svg width="30" height="30" viewBox="0 0 30 30" fill="none" xmlns="http://www.w3.org/2000/svg">
<rect width="29.5481" height="30" fill="#FF0000" fill-opacity="0.01"/>
<path fill-rule="evenodd" clip-rule="evenodd" d="M22.6535 13V20L25.6084 23V24H3.93976V23L6.89457 20V13C6.48896 9.05294 9.22924 5.68836 12.8042 5V4C12.8621 2.84105 13.6905 2 14.7741 2C15.8576 2 16.686 2.84105 16.7439 4V5C20.3188 5.68836 23.0592 9.05294 22.6535 13ZM17.6994 25C17.6994 26.5213 16.6879 27.6395 14.7593 27.6395C12.8308 27.6395 11.8192 26.5213 11.8192 25H17.6994Z" fill="black"/>
<mask id="mask0_1_502" style="mask-type:luminance" maskUnits="userSpaceOnUse" x="3" y="2" width="23" height="26">
<path fill-rule="evenodd" clip-rule="evenodd" d="M22.6535 13V20L25.6084 23V24H3.93976V23L6.89457 20V13C6.48896 9.05294 9.22924 5.68836 12.8042 5V4C12.8621 2.84105 13.6905 2 14.7741 2C15.8576 2 16.686 2.84105 16.7439 4V5C20.3188 5.68836 23.0592 9.05294 22.6535 13ZM17.6994 25C17.6994 26.5213 16.6879 27.6395 14.7593 27.6395C12.8308 27.6395 11.8192 26.5213 11.8192 25H17.6994Z" fill="white"/>
</mask>
<g mask="url(#mask0_1_502)">
<rect width="29.5481" height="30" fill="#C1C0C9"/>
</g>
</svg>
