<svg width="32" height="15" viewBox="0 0 32 15" fill="none" xmlns="http://www.w3.org/2000/svg">
<path fill-rule="evenodd" clip-rule="evenodd" d="M24.9063 8.2115C25.4879 8.2115 26.0564 8.41056 26.5399 8.78353C27.0235 9.1565 27.4004 9.6866 27.6229 10.3068C27.8455 10.927 27.9037 11.6095 27.7902 12.2679C27.6768 12.9264 27.3967 13.5312 26.9855 14.0058C26.5743 14.4805 26.0503 14.8038 25.48 14.9348C24.9096 15.0657 24.3184 14.9985 23.7811 14.7416C23.2438 14.4847 22.7845 14.0497 22.4614 13.4915C22.1383 12.9333 21.9659 12.2771 21.9659 11.6057C21.9665 10.7057 22.2765 9.84279 22.8278 9.20639C23.3791 8.56999 24.1266 8.21217 24.9063 8.2115ZM1.31666 12.738H1.7585C1.53761 11.8732 1.57541 10.9477 1.86579 10.1106C2.15617 9.2736 2.68223 8.57381 3.3592 8.12403C4.03617 7.67424 4.82461 7.50066 5.59747 7.63126C6.37032 7.76186 7.08259 8.18903 7.61947 8.84393H18.1617C18.1972 8.84459 18.2312 8.86119 18.2563 8.89022C18.2815 8.91925 18.2959 8.95844 18.2964 8.99949C18.2964 9.04075 18.2822 9.08032 18.257 9.10949C18.2317 9.13866 18.1974 9.15505 18.1617 9.15505H7.85143C8.18546 9.6575 8.41232 10.2437 8.51364 10.8661C8.61497 11.4886 8.58791 12.1299 8.43466 12.738H21.5682C21.5162 12.5352 21.4778 12.328 21.4534 12.1183H10.6284C10.5926 12.1183 10.5584 12.1019 10.5331 12.0728C10.5078 12.0436 10.4936 12.004 10.4936 11.9628C10.4936 11.9215 10.5078 11.8819 10.5331 11.8528C10.5584 11.8236 10.5926 11.8072 10.6284 11.8072H21.4401C21.4401 11.7409 21.4401 11.6746 21.4401 11.6057C21.44 11.0299 21.5471 10.4607 21.7543 9.93681C21.9614 9.41293 22.2638 8.94661 22.6408 8.56945C23.0178 8.19229 23.4606 7.91313 23.9393 7.75089C24.418 7.58865 24.9213 7.54713 25.4151 7.62914C25.9089 7.71115 26.3816 7.91477 26.8012 8.22621C27.2209 8.53764 27.5776 8.9496 27.8472 9.43414C28.1168 9.91869 28.293 10.4645 28.3638 11.0345C28.4346 11.6046 28.3984 12.1855 28.2576 12.738H29.7709C32 12.738 32 12.738 32 9.73648C31.9996 9.54221 31.99 9.34811 31.9713 9.15505H30.0294C29.9937 9.15505 29.9594 9.13866 29.9341 9.10949C29.9088 9.08032 29.8946 9.04075 29.8946 8.99949C29.8946 8.97906 29.8981 8.95883 29.9049 8.93996C29.9117 8.92108 29.9216 8.90394 29.9341 8.8895C29.9466 8.87505 29.9615 8.86359 29.9778 8.85577C29.9942 8.84796 30.0117 8.84393 30.0294 8.84393H31.9293C31.3174 4.99575 26.6648 5.06716 24.111 4.36841C22.3282 3.88133 19.6926 0 13.8516 0H4.35871C3.54573 0 1.26586 3.67987 1.26586 4.84529C1.26586 7.67596 0.0110432 6.77066 0.0110432 8.41551V8.84648H1.18191C1.2173 8.84776 1.25093 8.86456 1.27597 8.89346C1.30101 8.92236 1.31556 8.96119 1.31666 9.00204C1.31609 9.04309 1.30171 9.08228 1.27656 9.11131C1.25141 9.14034 1.21747 9.15694 1.18191 9.1576H0C0 12.4141 0.0861542 12.7406 1.30783 12.7406L1.31666 12.738ZM14.733 4.83254V0.971608C14.4392 0.948656 14.1432 0.941007 13.8383 0.941007H9.0245V4.84529L14.733 4.83254ZM15.0025 0.984355V4.83254H22.9556C22.6684 4.65403 22.3878 4.45257 22.1249 4.26386C21.4622 3.76913 20.7994 3.26165 20.0947 2.81282C18.5315 1.78426 16.7932 1.16036 15.0003 0.984355H15.0025ZM8.75499 4.83254V0.933357H7.04728C6.65847 1.16797 5.89188 2.32064 5.66433 2.69296C5.43679 3.06528 4.69892 4.37606 4.67462 4.83764L8.75499 4.83254ZM5.09437 8.20639C5.67612 8.20538 6.24506 8.4036 6.72919 8.77595C7.21332 9.1483 7.59087 9.67805 7.81411 10.2982C8.03734 10.9183 8.0962 11.6009 7.98324 12.2597C7.87029 12.9185 7.59059 13.5237 7.17955 13.9989C6.7685 14.4741 6.24457 14.7979 5.67407 14.9293C5.10356 15.0607 4.51211 14.9938 3.97456 14.737C3.43701 14.4803 2.97752 14.0452 2.65423 13.4869C2.33093 12.9286 2.15836 12.2722 2.15836 11.6006C2.15836 10.7013 2.46755 9.83875 3.01803 9.20235C3.56851 8.56595 4.31529 8.20774 5.09437 8.20639ZM5.09437 9.76199C5.40959 9.76098 5.71797 9.86796 5.98049 10.0694C6.243 10.2708 6.44786 10.5576 6.56909 10.8935C6.69033 11.2294 6.7225 11.5992 6.66154 11.9562C6.60058 12.3132 6.44923 12.6413 6.22665 12.899C6.00406 13.1566 5.72026 13.3322 5.41116 13.4036C5.10206 13.475 4.78157 13.4388 4.49026 13.2998C4.19895 13.1608 3.94993 12.9252 3.77472 12.6227C3.5995 12.3202 3.50597 11.9645 3.50597 11.6006C3.50597 11.1139 3.67318 10.647 3.97093 10.3023C4.26869 9.95764 4.6727 9.76334 5.09437 9.76199ZM24.9063 9.76199C25.2213 9.76199 25.5293 9.86982 25.7912 10.0719C26.0532 10.2739 26.2573 10.561 26.3779 10.897C26.4984 11.233 26.53 11.6027 26.4685 11.9594C26.4071 12.316 26.2554 12.6436 26.0326 12.9008C25.8098 13.1579 25.526 13.333 25.2171 13.404C24.9081 13.4749 24.5878 13.4385 24.2968 13.2994C24.0057 13.1602 23.7569 12.9245 23.5819 12.6222C23.4069 12.3198 23.3135 11.9643 23.3135 11.6006C23.3141 11.1132 23.4821 10.6459 23.7807 10.3013C24.0792 9.95659 24.4841 9.76266 24.9063 9.76199Z" fill="#404041"/>
</svg>
