<svg width="44" height="44" viewBox="0 0 44 44" fill="none" xmlns="http://www.w3.org/2000/svg">
<path d="M44 12.1957H0V30.3696H44V12.1957Z" fill="#E6E6E6"/>
<path fill-rule="evenodd" clip-rule="evenodd" d="M2.86957 38.0217H41.1304C42.7154 38.0217 44 36.7371 44 35.1522V30.3696H0V35.1522C0 36.7371 1.28461 38.0217 2.86957 38.0217Z" fill="#E79800"/>
<path fill-rule="evenodd" clip-rule="evenodd" d="M41.1304 5.5H2.86957C1.28461 5.5 0 6.78461 0 8.36957V13.1522H44V8.36957C44 6.78461 42.7154 5.5 41.1304 5.5Z" fill="#1A1876"/>
<path fill-rule="evenodd" clip-rule="evenodd" d="M17.4451 26.3522H19.9406L21.5026 17.1925H19.0061L17.4451 26.3522Z" fill="#1A1876"/>
<path fill-rule="evenodd" clip-rule="evenodd" d="M26.5368 20.8703C25.6644 20.4466 25.1297 20.1635 25.1355 19.7349C25.1355 19.3543 25.5879 18.9468 26.5655 18.9468C27.3651 18.9343 28.0098 19.0969 28.6583 19.403L28.9969 17.4173C28.5024 17.2317 27.7276 17.0328 26.7596 17.0328C24.2928 17.0328 22.5548 18.2753 22.5404 20.0554C22.5261 21.3716 23.781 22.1062 24.728 22.5443C25.6998 22.9929 26.0269 23.2798 26.0221 23.6806C26.0164 24.2947 25.2464 24.575 24.5281 24.575C23.4204 24.575 22.8618 24.4037 21.8565 23.9484L21.5064 25.9992C22.0899 26.2546 23.1679 26.4765 24.288 26.488C26.9127 26.488 28.6162 25.2598 28.6354 23.3583C28.6421 22.3166 27.9773 21.5236 26.5368 20.8703Z" fill="#1A1876"/>
<path d="M35.398 17.2011H33.4687C32.8709 17.2011 32.4242 17.3647 32.1612 17.9606L28.4537 26.355H31.0755C31.0755 26.355 31.504 25.2263 31.6016 24.9786C31.8885 24.9786 34.4348 24.9824 34.7992 24.9824C34.8738 25.3028 35.1034 26.355 35.1034 26.355H37.4201L35.398 17.2011ZM32.3199 23.1057C32.4232 22.8417 33.4419 20.2256 33.6457 19.6708C33.9833 21.2501 33.6543 19.7177 34.3927 23.1057H32.3199Z" fill="#1A1876"/>
<path fill-rule="evenodd" clip-rule="evenodd" d="M15.3512 17.1992L12.9063 23.4453L12.6462 22.176L11.771 17.9664C11.6198 17.3867 11.1817 17.2136 10.6394 17.1935H6.61244L6.58087 17.3838C7.56035 17.621 8.43557 17.9635 9.20365 18.3882L11.4237 26.3436L14.0657 26.3407L17.996 17.1983H15.3512V17.1992Z" fill="#1A1876"/>
</svg>
