<svg width="44" height="44" viewBox="0 0 44 44" fill="none" xmlns="http://www.w3.org/2000/svg">
<path fill-rule="evenodd" clip-rule="evenodd" d="M41.1304 5.5H2.86957C1.28461 5.5 0 6.78461 0 8.36957V35.1522C0 36.7371 1.28461 38.0217 2.86957 38.0217H41.1304C42.7154 38.0217 44 36.7371 44 35.1522V8.36957C44 6.78461 42.7154 5.5 41.1304 5.5Z" fill="#E6E6E6"/>
<path d="M22 33.2391C28.3393 33.2391 33.4783 28.1001 33.4783 21.7609C33.4783 15.4216 28.3393 10.2826 22 10.2826C15.6607 10.2826 10.5217 15.4216 10.5217 21.7609C10.5217 28.1001 15.6607 33.2391 22 33.2391Z" fill="#F99400"/>
<path d="M27.059 20.1252C27.2877 18.5976 26.1245 17.7769 24.5338 17.2288L25.0494 15.1599L23.7897 14.8461L23.2875 16.8606C22.9565 16.7783 22.616 16.6999 22.2784 16.6234L22.7844 14.5955L21.5256 14.2818L21.009 16.3498C20.7355 16.2876 20.4657 16.2255 20.2046 16.1604L20.2056 16.1537L18.4685 15.7204L18.1337 17.0653C18.1337 17.0653 19.0683 17.2795 19.0482 17.2929C19.558 17.4201 19.6508 17.7578 19.6355 18.0256L18.2217 23.694C18.1596 23.8489 18.0008 24.0814 17.645 23.9934C17.6574 24.0115 16.7296 23.7648 16.7296 23.7648L16.104 25.2062L17.7435 25.6147C18.0486 25.6912 18.347 25.7715 18.6417 25.8461L18.1204 27.939L19.3782 28.2528L19.8947 26.1819C20.2381 26.2747 20.5719 26.3617 20.8981 26.4421L20.3835 28.5034L21.6432 28.8171L22.1645 26.7281C24.3119 27.1346 25.9275 26.971 26.6076 25.0283C27.1557 23.4644 26.5798 22.5624 25.4502 21.9741C26.2747 21.7848 26.8945 21.2434 27.059 20.1252ZM24.1818 24.1608C23.7925 25.7247 21.1592 24.8791 20.305 24.6677L20.9966 21.8948C21.8508 22.1081 24.5884 22.5299 24.1818 24.1608ZM24.5711 20.1032C24.2163 21.5255 22.0239 20.8034 21.3132 20.6255L21.9407 18.1108C22.6514 18.2877 24.9413 18.6187 24.5711 20.1032Z" fill="white"/>
</svg>
