<svg width="22" height="21" viewBox="0 0 22 21" fill="none" xmlns="http://www.w3.org/2000/svg">
<path d="M17.5449 20.9814C17.2711 21.0267 16.9896 20.9887 16.7387 20.8727C16.1306 20.5733 15.7252 19.8079 15.5999 18.712L15.5476 18.2684H6.3328L6.30775 18.5967C6.23031 19.6415 5.6951 20.571 5.03234 20.8151C4.23067 21.1101 3.41988 20.5622 3.06687 19.484C2.94099 19.0998 2.86449 18.702 2.83912 18.2994V18.1109H1.99189H1.14693L0.971566 17.6916C0.858532 17.4789 0.798457 17.2434 0.796198 17.0039C0.787345 16.7307 0.878572 16.4633 1.05356 16.2496C1.17882 16.07 1.19248 16.0611 1.37924 16.0611H1.5751L1.56371 15.6951V15.3246L1.40885 15.2469L1.25625 15.1671V10.5284L1.46123 9.16636C1.57282 8.41432 1.67303 7.75102 1.68898 7.69113L1.70947 7.58243H0.953346C0.700855 7.59294 0.447901 7.58255 0.197215 7.55137C0.197215 7.53584 0.160777 7.24079 0.117504 6.88585C-0.0499013 5.83302 -0.0383611 4.76053 0.151665 3.71135L0.222267 3.37194H0.864524C1.35874 3.37194 1.51133 3.37194 1.525 3.40965C1.53866 3.44736 1.58194 3.89992 1.62976 4.43676C1.73681 5.65244 1.72314 5.59255 1.87573 5.59255C1.97366 5.59255 1.99872 5.57479 1.99872 5.50158C1.99872 5.42838 2.06021 4.86713 2.13537 4.19717C2.26974 3.01034 2.27657 2.97485 2.44511 2.5467C3.04181 1.02932 3.5588 0.43258 4.55179 0.106478L4.87748 0H17.0165L17.324 0.0931682C18.3307 0.397087 18.8477 0.980526 19.4489 2.46906L19.6562 2.98595L19.7974 4.27483C19.8771 4.98471 19.9409 5.57036 19.9409 5.57924C19.9409 5.58811 19.9932 5.59475 20.0593 5.59475C20.2005 5.59475 20.18 5.69458 20.3098 4.30587C20.3554 3.8267 20.4009 3.41853 20.4123 3.39856C20.8668 3.36178 21.3232 3.35364 21.7788 3.37416C21.7788 3.37416 21.8152 3.56494 21.8608 3.78678C22.0453 4.71628 22.0475 5.60585 21.8608 7.02783L21.7925 7.56468H21.0067C20.574 7.56468 20.2187 7.58242 20.2187 7.5913C20.2187 7.60017 20.3212 8.27901 20.4465 9.09981L20.6742 10.5906V12.8733V15.1582L20.5216 15.2359L20.3667 15.3157V16.0522H20.5512C20.722 16.0522 20.7448 16.0655 20.8724 16.2385C21.2094 16.6822 21.2254 17.0926 20.9407 17.736L20.7653 18.1242H19.0868V18.2928C19.0588 18.6827 18.9917 19.0691 18.8864 19.4463C18.645 20.2605 18.1416 20.8484 17.5563 20.9992L17.5449 20.9814ZM3.93232 16.7C4.3696 16.7466 5.60855 16.7554 11.0244 16.751C14.632 16.751 17.7317 16.731 17.9116 16.7133C19.3214 16.5735 19.3647 16.2696 17.9913 16.121C17.7636 16.0944 15.2765 16.0788 10.9607 16.0788C5.38991 16.0788 4.21928 16.0899 3.82072 16.1365C3.11469 16.223 2.88466 16.3051 2.94388 16.456C2.98032 16.5447 3.35155 16.6379 3.93232 16.7ZM16.8731 13.9292C16.8808 13.7744 16.8559 13.6197 16.7999 13.4746C16.7439 13.3295 16.658 13.1971 16.5475 13.0855C16.437 12.974 16.3042 12.8856 16.1574 12.8259C16.0105 12.7663 15.8526 12.7365 15.6935 12.7384C15.5344 12.7404 15.3774 12.7741 15.2321 12.8374C15.0868 12.9007 14.9564 12.9923 14.8489 13.1066C14.7413 13.2208 14.6589 13.3553 14.6067 13.5017C14.5546 13.6482 14.5337 13.8035 14.5455 13.9581C14.5476 14.1657 14.6118 14.3682 14.7304 14.5408C14.8489 14.7134 15.0165 14.8486 15.2128 14.9297C15.388 15.0128 15.5819 15.0514 15.7766 15.0419C15.9712 15.0323 16.1602 14.9749 16.3259 14.875C16.4917 14.7752 16.6287 14.6361 16.7244 14.4707C16.8201 14.3053 16.8712 14.119 16.8731 13.9292ZM7.09348 14.5459C7.25157 14.3717 7.35044 14.154 7.37654 13.9229C7.40263 13.6917 7.35467 13.4584 7.23924 13.2548C7.11685 13.02 6.90896 12.8381 6.6562 12.7446C6.49943 12.6651 6.32049 12.6371 6.14604 12.6647C5.88372 12.6722 5.63211 12.7677 5.43374 12.935C5.23537 13.1024 5.10242 13.3313 5.0574 13.5831C5.00571 13.8306 5.04003 14.0879 5.15494 14.3143C5.26984 14.5407 5.45881 14.7234 5.69207 14.8337C5.92534 14.944 6.18964 14.9756 6.44336 14.9235C6.69708 14.8714 6.9258 14.7386 7.09348 14.5459ZM18.0255 14.6901C18.2121 14.788 18.428 14.8194 18.6358 14.7789C18.8437 14.7384 19.0306 14.6285 19.1642 14.4683C19.244 14.369 19.3022 14.2549 19.3351 14.133C19.3679 14.0111 19.3749 13.8839 19.3555 13.7592C19.3361 13.6346 19.2907 13.5151 19.2222 13.4081C19.1537 13.3012 19.0634 13.209 18.957 13.1372C18.8089 13.0419 18.7497 13.0308 18.4582 13.0308C18.1667 13.0308 18.1143 13.0308 17.9389 13.1572C17.8068 13.2433 17.7002 13.3615 17.6295 13.5001C17.5588 13.6388 17.5266 13.793 17.536 13.9475C17.5455 14.102 17.5962 14.2515 17.6833 14.3809C17.7704 14.5104 17.8907 14.6155 18.0323 14.6857L18.0255 14.6901ZM2.99398 14.5548C3.12296 14.624 3.26542 14.6661 3.41214 14.6784C3.55887 14.6906 3.7066 14.6727 3.84577 14.6258C4.02413 14.5462 4.1732 14.4153 4.27295 14.2507C4.3727 14.0861 4.41834 13.8957 4.40376 13.7052C4.38669 13.5026 4.29878 13.312 4.15471 13.165C4.01065 13.018 3.81916 12.9236 3.61224 12.8977C3.40533 12.8717 3.19554 12.9157 3.01792 13.0223C2.84031 13.1289 2.70564 13.2916 2.63642 13.4833C2.56201 13.6759 2.55686 13.8874 2.6218 14.0832C2.68675 14.2791 2.81795 14.4477 2.99398 14.5615V14.5548ZM11.612 6.80377V9.98937H19.1278L19.0914 9.77863C19.0709 9.66549 18.9729 8.86688 18.8636 8.00393C18.6541 6.21369 18.6017 5.87428 18.4286 5.12003C18.3355 4.67911 18.1918 4.24975 18.0004 3.84002L17.8934 3.61818H11.5961V6.80377H11.612ZM2.83912 9.87845L2.81862 9.98937H10.3458V3.61818H4.03025L3.91182 3.87551C3.52464 4.71849 3.33105 5.65021 3.0737 7.93736C2.94388 9.0998 2.88239 9.57453 2.82317 9.87845H2.83912ZM7.05477 2.66206C7.63325 2.70864 14.386 2.70643 14.9668 2.66206C15.5476 2.61769 16.2058 2.41803 16.4563 2.20063C16.9118 1.80576 16.684 1.34877 15.8801 1.09144C15.3244 0.902878 15.3061 0.902883 10.9584 0.902883C7.15497 0.902883 6.82474 0.902885 6.50817 0.973873C5.84086 1.11363 5.46279 1.31328 5.30792 1.60833C5.2568 1.69511 5.24039 1.79722 5.26183 1.89508C5.28326 1.99293 5.34104 2.07962 5.42408 2.13852C5.72243 2.42913 6.27358 2.61103 7.05477 2.67315V2.66206Z" fill="black"/>
</svg>
