<svg width="27" height="16" viewBox="0 0 27 16" fill="none" xmlns="http://www.w3.org/2000/svg">
<path d="M21.4886 7.82916H3.25765C2.98934 7.82919 2.73176 7.73387 2.54047 7.56377C2.34918 7.39366 2.23953 7.1624 2.23513 6.91985V4.34956C2.23602 4.10463 2.34403 3.86995 2.5356 3.69675C2.72717 3.52356 2.98673 3.4259 3.25765 3.4251H18.8938C19.1987 3.44011 19.4949 3.52224 19.7566 3.66434C20.0184 3.80644 20.2378 4.00421 20.3957 4.24044L22.0318 7.01382C22.2966 7.46544 22.0485 7.82916 21.4886 7.82916ZM20.6438 6.28031L19.8526 4.97698C19.7412 4.80187 19.5832 4.6547 19.3929 4.54883C19.2027 4.44297 18.9861 4.38176 18.763 4.37078H6.27156C6.17426 4.37078 6.07793 4.3881 5.98804 4.42177C5.89814 4.45543 5.81647 4.50477 5.74767 4.56697C5.67887 4.62917 5.62429 4.70302 5.58706 4.78429C5.54982 4.86556 5.53065 4.95266 5.53065 5.04063V6.20757C5.53153 6.38498 5.60987 6.55489 5.74863 6.68034C5.88738 6.80579 6.07533 6.87662 6.27156 6.87742H20.2516C20.3339 6.89135 20.419 6.88207 20.4954 6.85084C20.5717 6.8196 20.6356 6.76791 20.6784 6.70277C20.7212 6.63763 20.7409 6.56217 20.7347 6.48661C20.7285 6.41106 20.6968 6.33904 20.6438 6.28031Z" fill="black"/>
<path d="M16.8419 2.89764H4.83323C4.6554 2.89764 4.48485 2.83378 4.3591 2.72009C4.23336 2.60641 4.16273 2.45222 4.16273 2.29144V0.606201C4.16273 0.445427 4.23336 0.291239 4.3591 0.177554C4.48485 0.0638693 4.6554 0 4.83323 0H15.1322C15.3356 0.00790455 15.5338 0.0609839 15.7092 0.15455C15.8846 0.248115 16.0319 0.37929 16.1379 0.53649L17.2141 2.35509C17.2665 2.40881 17.2983 2.47634 17.305 2.5477C17.3116 2.61907 17.2926 2.69047 17.2509 2.75133C17.2091 2.81219 17.1468 2.85928 17.0732 2.88563C16.9995 2.91199 16.9184 2.9162 16.8419 2.89764Z" fill="black"/>
<path d="M0.984534 8.3898H26.1519C26.8861 8.3898 27.2046 8.87173 26.8626 9.45672L24.08 14.8216C23.8738 15.1309 23.5869 15.3898 23.2444 15.5758C22.902 15.7618 22.5144 15.8691 22.1155 15.8885H3.41175C3.02529 15.8718 2.65216 15.7557 2.3362 15.5538C2.02025 15.3519 1.77463 15.0726 1.62823 14.7489L0.0927724 9.54159C0.0218149 9.41275 -0.00939494 9.26899 0.00243163 9.12547C0.0142601 8.98194 0.0686791 8.84395 0.15997 8.72604C0.251261 8.60813 0.376054 8.51467 0.521168 8.45549C0.666283 8.39632 0.826349 8.37362 0.984534 8.3898ZM19.3295 12.3059C19.5788 12.3059 19.8225 12.239 20.0298 12.1138C20.2371 11.9886 20.3987 11.8106 20.4941 11.6023C20.5895 11.3941 20.6145 11.1649 20.5658 10.9439C20.5172 10.7228 20.3971 10.5197 20.2209 10.3603C20.0446 10.201 19.82 10.0924 19.5754 10.0484C19.3309 10.0045 19.0775 10.027 18.8471 10.1133C18.6168 10.1996 18.4199 10.3456 18.2814 10.533C18.1429 10.7205 18.069 10.9408 18.069 11.1662C18.0699 11.4682 18.2029 11.7576 18.4392 11.9712C18.6754 12.1847 18.9955 12.3051 19.3295 12.3059ZM15.6216 12.3059C15.871 12.3059 16.1147 12.239 16.322 12.1138C16.5293 11.9886 16.6908 11.8106 16.7862 11.6023C16.8816 11.3941 16.9066 11.1649 16.858 10.9439C16.8093 10.7228 16.6893 10.5197 16.513 10.3603C16.3367 10.201 16.1121 10.0924 15.8676 10.0484C15.623 10.0045 15.3696 10.027 15.1392 10.1133C14.9089 10.1996 14.712 10.3456 14.5735 10.533C14.435 10.7205 14.3611 10.9408 14.3611 11.1662C14.3611 11.3159 14.3937 11.4641 14.457 11.6023C14.5204 11.7406 14.6132 11.8662 14.7303 11.9721C14.8473 12.0779 14.9863 12.1618 15.1392 12.2191C15.2922 12.2764 15.4561 12.3059 15.6216 12.3059ZM11.9138 12.3059C12.1631 12.3059 12.4068 12.239 12.6141 12.1138C12.8214 11.9886 12.9829 11.8106 13.0783 11.6023C13.1737 11.3941 13.1987 11.1649 13.1501 10.9439C13.1014 10.7228 12.9814 10.5197 12.8051 10.3603C12.6288 10.201 12.4042 10.0924 12.1597 10.0484C11.9151 10.0045 11.6617 10.027 11.4314 10.1133C11.201 10.1996 11.0042 10.3456 10.8656 10.533C10.7271 10.7205 10.6532 10.9408 10.6532 11.1662C10.6532 11.3159 10.6858 11.4641 10.7492 11.6023C10.8125 11.7406 10.9054 11.8662 11.0224 11.9721C11.1395 12.0779 11.2784 12.1618 11.4314 12.2191C11.5843 12.2764 11.7482 12.3059 11.9138 12.3059ZM8.20587 12.3059C8.45533 12.3065 8.69935 12.2401 8.90709 12.1153C9.11483 11.9904 9.27693 11.8126 9.37285 11.6044C9.46877 11.3962 9.49422 11.167 9.44596 10.9457C9.3977 10.7245 9.2779 10.5211 9.10174 10.3614C8.92559 10.2017 8.70098 10.0929 8.45637 10.0487C8.21176 10.0045 7.95814 10.0268 7.72761 10.113C7.49708 10.1992 7.3 10.3453 7.16134 10.5327C7.02268 10.7202 6.94868 10.9407 6.94868 11.1662C6.94868 11.4679 7.08102 11.7574 7.31669 11.971C7.55236 12.1846 7.87214 12.3051 8.20587 12.3059ZM4.50132 12.3059C4.75063 12.3059 4.99436 12.239 5.20166 12.1138C5.40896 11.9886 5.57052 11.8106 5.66592 11.6023C5.76133 11.3941 5.7863 11.1649 5.73767 10.9439C5.68903 10.7228 5.56896 10.5197 5.39267 10.3603C5.21638 10.201 4.99178 10.0924 4.74726 10.0484C4.50273 10.0045 4.24928 10.027 4.01895 10.1133C3.78861 10.1996 3.59174 10.3456 3.45323 10.533C3.31472 10.7205 3.24079 10.9408 3.24079 11.1662C3.24079 11.4685 3.37359 11.7583 3.60999 11.9721C3.84639 12.1858 4.167 12.3059 4.50132 12.3059Z" fill="black"/>
</svg>
