<svg width="30" height="30" viewBox="0 0 30 30" fill="none" xmlns="http://www.w3.org/2000/svg">
<rect width="29.5481" height="30" fill="#FF0000" fill-opacity="0.01"/>
<path fill-rule="evenodd" clip-rule="evenodd" d="M5.63986 7.44C7.80069 4.74918 11.0767 3 14.774 3C21.2913 3 26.5933 8.38306 26.5933 15C26.5933 21.6169 21.2913 27 14.774 27C8.25677 27 2.9548 21.6169 2.9548 15C2.9548 13.7647 5.35524 13.6475 5.40668 15C5.6097 20.3788 9.47346 24.5015 14.774 24.5015C20.0746 24.5015 24.154 20.3831 24.154 15C24.154 9.61835 20.076 5.45123 14.774 5.45123C11.6844 5.45123 8.94924 6.72 7.17636 9L8.87041 10.72C9.18171 11.036 8.95781 11.5708 8.51418 11.5708H3.1548C3.04435 11.5708 2.9548 11.4813 2.9548 11.3708V5.93406C2.9548 5.48678 3.49716 5.26453 3.81103 5.5832L5.63986 7.44ZM14.7745 10C14.7745 9.45613 14.7745 9.00372 15.7569 9.00372C16.7394 9.00372 16.742 9.45193 16.742 10V16.0256C16.742 17.0081 15.7494 18.0023 14.7514 18.0023H10.8348C10.8348 18.0023 9.85224 17.9639 9.85224 16.9857C9.85224 16.0076 10.8348 16.0256 10.8348 16.0256H14.8134L14.7745 10Z" fill="black"/>
<mask id="mask0_1_507" style="mask-type:luminance" maskUnits="userSpaceOnUse" x="2" y="3" width="25" height="24">
<path fill-rule="evenodd" clip-rule="evenodd" d="M5.63986 7.44C7.80069 4.74918 11.0767 3 14.774 3C21.2913 3 26.5933 8.38306 26.5933 15C26.5933 21.6169 21.2913 27 14.774 27C8.25677 27 2.9548 21.6169 2.9548 15C2.9548 13.7647 5.35524 13.6475 5.40668 15C5.6097 20.3788 9.47346 24.5015 14.774 24.5015C20.0746 24.5015 24.154 20.3831 24.154 15C24.154 9.61835 20.076 5.45123 14.774 5.45123C11.6844 5.45123 8.94924 6.72 7.17636 9L8.87041 10.72C9.18171 11.036 8.95781 11.5708 8.51418 11.5708H3.1548C3.04435 11.5708 2.9548 11.4813 2.9548 11.3708V5.93406C2.9548 5.48678 3.49716 5.26453 3.81103 5.5832L5.63986 7.44ZM14.7745 10C14.7745 9.45613 14.7745 9.00372 15.7569 9.00372C16.7394 9.00372 16.742 9.45193 16.742 10V16.0256C16.742 17.0081 15.7494 18.0023 14.7514 18.0023H10.8348C10.8348 18.0023 9.85224 17.9639 9.85224 16.9857C9.85224 16.0076 10.8348 16.0256 10.8348 16.0256H14.8134L14.7745 10Z" fill="white"/>
</mask>
<g mask="url(#mask0_1_507)">
<rect width="29.5481" height="30" fill="#C1C0C9"/>
</g>
</svg>
