<svg width="20" height="16" viewBox="0 0 20 16" fill="none" xmlns="http://www.w3.org/2000/svg">
<path d="M9.99998 12.963V9.72223L7.08331 7.45371L10.4166 4.86111L13.3333 7.12963H17.0833" stroke="#DB4975" stroke-width="2" stroke-linecap="round" stroke-linejoin="round"/>
<path d="M17.0118 2.32414C17.6627 2.83036 17.6627 3.65114 17.0118 4.15737C16.361 4.66361 15.3056 4.66361 14.6548 4.15737C14.0039 3.65114 14.0039 2.83036 14.6548 2.32414C15.3056 1.8179 16.361 1.8179 17.0118 2.32414Z" stroke="#DB4975" stroke-width="2" stroke-linecap="round" stroke-linejoin="round"/>
<path d="M18.3333 11.6667C18.3333 12.7406 17.2141 13.6111 15.8333 13.6111C14.4526 13.6111 13.3333 12.7406 13.3333 11.6667C13.3333 10.5928 14.4526 9.72223 15.8333 9.72223C17.2141 9.72223 18.3333 10.5928 18.3333 11.6667Z" stroke="#DB4975" stroke-width="2" stroke-linecap="round" stroke-linejoin="round"/>
<path d="M6.66669 11.6667C6.66669 12.7406 5.5474 13.6111 4.16669 13.6111C2.78598 13.6111 1.66669 12.7406 1.66669 11.6667C1.66669 10.5928 2.78598 9.72223 4.16669 9.72223C5.5474 9.72223 6.66669 10.5928 6.66669 11.6667Z" stroke="#DB4975" stroke-width="2" stroke-linecap="round" stroke-linejoin="round"/>
</svg>
