<svg width="44" height="44" viewBox="0 0 44 44" fill="none" xmlns="http://www.w3.org/2000/svg">
<path d="M30.4334 9.53331C32.0834 11.55 31.5334 15.2166 31.5334 15.4C30.25 21.45 26.2167 23.65 20.9 23.65H18.15C17.6 23.65 17.05 24.2 16.8667 24.75L15.5834 33.3666H9.90002C9.53335 33.3666 9.16669 33 9.16669 32.45L13.0167 8.43331C13.2 7.88331 13.5667 7.33331 14.3 7.33331H23.4667C26.5834 7.33331 28.9667 8.06665 30.4334 9.53331ZM33.1834 16.1333C34.1 17.4166 34.2834 19.25 33.7334 21.2666C32.8167 26.7666 29.15 28.6 24.5667 28.6C24.5667 28.6 22.9167 28.4166 22.7334 29.5166V29.8833L21.8167 35.75C21.8167 36.3 21.2667 36.6666 20.7167 36.6666H17.05L18.7 25.4833H20.9C27.6834 25.4833 31.7167 22.1833 33.1834 16.1333Z" fill="black" fill-opacity="0.5"/>
</svg>
