<svg width="71" height="49" viewBox="0 0 71 49" fill="none" xmlns="http://www.w3.org/2000/svg">
<path d="M17.9731 34.8823C16.5946 34.8806 15.2466 35.2879 14.0997 36.0527C12.9528 36.8175 12.0586 37.9054 11.5303 39.1786C11.002 40.4519 10.8633 41.8532 11.1318 43.2053C11.4003 44.5574 12.064 45.7995 13.0387 46.7743C14.0135 47.749 15.2555 48.4127 16.6076 48.6812C17.9597 48.9497 19.3611 48.811 20.6343 48.2827C21.9076 47.7544 22.9955 46.8602 23.7603 45.7133C24.5251 44.5664 24.9324 43.2184 24.9307 41.8398C24.9284 39.9953 24.1947 38.2269 22.8904 36.9226C21.586 35.6183 19.8177 34.8845 17.9731 34.8823ZM17.9731 44.8683C17.3738 44.87 16.7874 44.6938 16.2883 44.362C15.7891 44.0303 15.3996 43.558 15.1691 43.0047C14.9386 42.4515 14.8774 41.8423 14.9933 41.2543C15.1092 40.6663 15.3969 40.1259 15.8201 39.7015C16.2433 39.2771 16.7829 38.9878 17.3705 38.8703C17.9582 38.7527 18.5676 38.8122 19.1214 39.0412C19.6753 39.2701 20.1488 39.6583 20.4819 40.1565C20.8151 40.6547 20.9929 41.2405 20.9929 41.8398C20.9929 42.6415 20.675 43.4105 20.109 43.9782C19.5429 44.5459 18.7748 44.866 17.9731 44.8683Z" fill="black"/>
<path d="M49.0635 34.8823C47.685 34.8806 46.3369 35.2879 45.1901 36.0527C44.0432 36.8175 43.149 37.9054 42.6206 39.1786C42.0923 40.4519 41.9537 41.8532 42.2222 43.2053C42.4907 44.5574 43.1543 45.7995 44.1291 46.7743C45.1038 47.749 46.3459 48.4127 47.698 48.6812C49.0501 48.9497 50.4514 48.811 51.7247 48.2827C52.9979 47.7544 54.0858 46.8602 54.8506 45.7133C55.6154 44.5664 56.0228 43.2184 56.0211 41.8398C56.0188 39.9953 55.285 38.2269 53.9807 36.9226C52.6764 35.6183 50.908 34.8845 49.0635 34.8823ZM49.0635 44.8683C48.4645 44.8683 47.879 44.6907 47.381 44.3579C46.883 44.0251 46.4948 43.5521 46.2656 42.9988C46.0364 42.4454 45.9764 41.8365 46.0933 41.249C46.2101 40.6616 46.4985 40.122 46.9221 39.6984C47.3456 39.2749 47.8852 38.9865 48.4727 38.8697C49.0601 38.7528 49.669 38.8128 50.2224 39.042C50.7758 39.2712 51.2487 39.6594 51.5815 40.1574C51.9143 40.6554 52.0919 41.2409 52.0919 41.8398C52.0919 42.643 51.7728 43.4133 51.2049 43.9812C50.6369 44.5492 49.8667 44.8683 49.0635 44.8683Z" fill="black"/>
<path d="M62.1121 22.477C60.6598 22.058 59.3052 21.3546 58.127 20.4076C56.9488 19.4606 55.9705 18.289 55.2489 16.9607L51.0538 8.90501C50.3434 7.69566 49.3451 6.68064 48.1477 5.95024C46.9503 5.21984 45.5909 4.79669 44.1906 4.71844H19.6202C18.2635 4.78223 16.9542 5.23742 15.8505 6.02904C14.7468 6.82067 13.8959 7.91488 13.4004 9.17955L10.8267 16.7462C10.5779 17.7414 8.91361 22.7515 5.43052 22.7515C2.85682 22.7515 0 26.1832 0 28.7569V37.6705C0.002246 38.916 0.496834 40.11 1.37592 40.9923C2.255 41.8746 3.44726 42.3736 4.69273 42.3804H9.5313C9.5313 42.2088 9.5313 42.0286 9.5313 41.8399C9.60118 39.6487 10.5207 37.5707 12.0954 36.0454C13.6702 34.5201 15.7765 33.6672 17.9688 33.6672C20.1611 33.6672 22.2674 34.5201 23.8421 36.0454C25.4168 37.5707 26.3364 39.6487 26.4062 41.8399C26.4062 42.0286 26.4062 42.2088 26.4062 42.3804H40.6388C40.6388 42.2088 40.6388 42.0286 40.6388 41.8399C40.7087 39.6487 41.6283 37.5707 43.203 36.0454C44.7777 34.5201 46.884 33.6672 49.0763 33.6672C51.2686 33.6672 53.3749 34.5201 54.9496 36.0454C56.5243 37.5707 57.4439 39.6487 57.5138 41.8399C57.5138 42.0286 57.5138 42.2088 57.5138 42.3804H66.2901C67.5371 42.3781 68.7325 41.8823 69.615 41.0014C70.4975 40.1205 70.9955 38.926 71 37.6791V30.6614C71 23.129 64.6258 23.129 62.1121 22.477ZM12.4138 21.3703C12.9684 20.4873 13.3904 19.5276 13.6664 18.5221L15.8455 12.105C16.2699 11.0392 16.9908 10.1173 17.9228 9.44835C18.8547 8.7794 19.9588 8.39137 21.1044 8.33021H25.9859V21.3703H12.4138ZM27.1097 29.4603H23.9441C23.7362 29.4581 23.5377 29.374 23.3915 29.2262C23.2453 29.0784 23.1634 28.8789 23.1634 28.6711V25.9172C23.1634 25.7094 23.2453 25.5099 23.3915 25.3621C23.5377 25.2143 23.7362 25.1302 23.9441 25.128H27.1269C27.3362 25.128 27.537 25.2111 27.685 25.3591C27.833 25.5071 27.9161 25.7079 27.9161 25.9172V28.6711C27.9117 28.8774 27.8265 29.0738 27.679 29.2181C27.5315 29.3624 27.3333 29.4432 27.1269 29.4432L27.1097 29.4603ZM32.4802 33.93C32.4802 34.1394 32.397 34.3401 32.249 34.4881C32.101 34.6361 31.9002 34.7193 31.6909 34.7193H28.5253C28.3174 34.717 28.1189 34.6329 27.9727 34.4851C27.8265 34.3374 27.7446 34.1379 27.7446 33.93V31.1762C27.7446 30.9683 27.8265 30.7688 27.9727 30.6211C28.1189 30.4733 28.3174 30.3892 28.5253 30.3869H31.7081C31.8117 30.3869 31.9144 30.4073 32.0101 30.447C32.1059 30.4866 32.1929 30.5448 32.2662 30.6181C32.3395 30.6914 32.3976 30.7784 32.4373 30.8741C32.4769 30.9699 32.4973 31.0725 32.4973 31.1762L32.4802 33.93ZM33.0292 29.4603C32.8206 29.4581 32.6212 29.3742 32.4736 29.2267C32.3261 29.0792 32.2422 28.8797 32.24 28.6711V25.9172C32.2422 25.7086 32.3261 25.5091 32.4736 25.3616C32.6212 25.2141 32.8206 25.1302 33.0292 25.128H36.2121C36.4214 25.128 36.6221 25.2111 36.7702 25.3591C36.9182 25.5071 37.0013 25.7079 37.0013 25.9172V28.6711C37.0013 28.8804 36.9182 29.0812 36.7702 29.2292C36.6221 29.3772 36.4214 29.4603 36.2121 29.4603H33.0292ZM41.5225 33.93C41.5225 34.1394 41.4393 34.3401 41.2913 34.4881C41.1433 34.6361 40.9425 34.7193 40.7332 34.7193H37.5504C37.3411 34.7193 37.1403 34.6361 36.9923 34.4881C36.8443 34.3401 36.7611 34.1394 36.7611 33.93V31.1762C36.7611 30.9668 36.8443 30.7661 36.9923 30.6181C37.1403 30.4701 37.3411 30.3869 37.5504 30.3869H40.7246C40.9333 30.3891 41.1327 30.473 41.2803 30.6205C41.4278 30.7681 41.5117 30.9675 41.5139 31.1762L41.5225 33.93ZM46.2409 28.6711C46.241 28.8789 46.159 29.0784 46.0128 29.2262C45.8666 29.374 45.6681 29.4581 45.4602 29.4603H42.2774C42.1738 29.4603 42.0712 29.44 41.9754 29.4003C41.8796 29.3606 41.7926 29.3025 41.7193 29.2292C41.646 29.1559 41.5879 29.0689 41.5482 28.9731C41.5086 28.8774 41.4882 28.7747 41.4882 28.6711V25.9172C41.4882 25.7079 41.5713 25.5071 41.7193 25.3591C41.8674 25.2111 42.0681 25.128 42.2774 25.128H45.4602C45.6681 25.1302 45.8666 25.2143 46.0128 25.3621C46.159 25.5099 46.241 25.7094 46.2409 25.9172V28.6711ZM30.6872 21.3703V8.33021H41.9428C43.128 8.39609 44.2785 8.75408 45.2919 9.37227C46.3052 9.99045 47.15 10.8496 47.7509 11.8733L51.3026 18.6937C51.8473 19.7001 52.5679 20.6008 53.4302 21.3532L30.6872 21.3703Z" fill="black"/>
<path d="M37.9107 0H23.455C22.9338 0 22.5113 0.422511 22.5113 0.943698V2.42788C22.5113 2.94907 22.9338 3.37155 23.455 3.37155H37.9107C38.4319 3.37155 38.8544 2.94907 38.8544 2.42788V0.943698C38.8544 0.422511 38.4319 0 37.9107 0Z" fill="black"/>
</svg>
