<svg width="41" height="14" viewBox="0 0 41 14" fill="none" xmlns="http://www.w3.org/2000/svg">
<path d="M35.0426 13.927C34.3503 14.0715 33.6321 14.0005 32.9789 13.7231C32.3258 13.4456 31.7672 12.9743 31.3739 12.3688C30.9807 11.7633 30.7705 11.0509 30.77 10.3219C30.7696 9.59298 30.9788 8.8803 31.3713 8.27427C31.6936 7.77503 32.133 7.36798 32.6486 7.09092C33.1642 6.81386 33.7392 6.67579 34.3203 6.68952C34.7859 6.69048 35.2468 6.78649 35.6763 6.97203C36.1058 7.15757 36.4955 7.42897 36.823 7.77061C37.1504 8.11224 37.4092 8.51735 37.5843 8.96262C37.7594 9.40789 37.8475 9.88452 37.8434 10.3651C37.8438 11.201 37.5658 12.0116 37.0558 12.6611C36.5459 13.3105 35.8351 13.7592 35.0426 13.932V13.927ZM33.6506 13.0729C34.1989 13.2165 34.777 13.1789 35.3035 12.9655C35.83 12.752 36.2783 12.3735 36.5853 11.8832C36.894 11.418 37.0477 10.8617 37.023 10.2984C37.0229 9.82489 36.9064 9.35914 36.6843 8.94481C36.4622 8.53048 36.1418 8.18113 35.7532 7.9295C35.3645 7.67788 34.9203 7.53222 34.4622 7.50617C34.0041 7.48012 33.5471 7.57454 33.134 7.78058C32.6241 8.02935 32.2014 8.43507 31.9241 8.94195C31.6467 9.44882 31.5283 10.0319 31.5852 10.6111C31.6421 11.1902 31.8715 11.7369 32.2418 12.176C32.6121 12.6151 33.1051 12.925 33.653 13.0631L33.6506 13.0729ZM7.167 13.9517C6.61284 14.0188 6.05139 13.9777 5.51191 13.8308C4.98751 13.6521 4.5084 13.3548 4.10951 12.9606C3.71063 12.5664 3.40205 12.0853 3.20629 11.5524C3.02198 10.8685 2.98927 10.1505 3.11062 9.45172C3.26284 8.84575 3.55974 8.2888 3.97419 7.83173C4.38864 7.37466 4.90744 7.03204 5.48321 6.83516C6.13626 6.63383 6.82915 6.6134 7.49227 6.77591C8.38757 7.03581 9.1501 7.64438 9.61905 8.47329C10.088 9.30221 10.2267 10.2867 10.006 11.2191C9.85851 11.8501 9.53993 12.4246 9.08755 12.8755C8.57702 13.4334 7.90624 13.8073 7.17417 13.9418L7.167 13.9517ZM9.29563 10.3231C9.30644 9.94637 9.24389 9.57124 9.11167 9.21992C8.97945 8.86861 8.78026 8.54825 8.5259 8.27784C8.27153 8.00742 7.96715 7.79245 7.63082 7.64565C7.29449 7.49885 6.93304 7.42321 6.56787 7.42321C6.2027 7.42321 5.84124 7.49885 5.5049 7.64565C5.16857 7.79245 4.86421 8.00742 4.60984 8.27784C4.35548 8.54825 4.15629 8.86861 4.02407 9.21992C3.89185 9.57124 3.82928 9.94637 3.84009 10.3231C3.83026 10.9556 4.02962 11.5728 4.40528 12.0727C4.78095 12.5726 5.31049 12.9254 5.90655 13.0729C6.30933 13.1761 6.72959 13.1831 7.13541 13.0936C7.54123 13.004 7.92193 12.8202 8.24862 12.5561C8.57531 12.292 8.83939 11.9545 9.02081 11.5693C9.20223 11.1841 9.29622 10.7613 9.29563 10.333V10.3231ZM30.2137 11.9177C30.2137 11.9523 11.6969 11.8757 11.1516 11.8363L10.6733 11.8042L10.7594 11.5573C10.8913 11.0038 10.9325 10.4315 10.8814 9.86396C10.7867 8.94799 10.421 8.08435 9.83396 7.39052C9.24689 6.69669 8.46696 6.20637 7.6003 5.98626C6.73363 5.76615 5.8223 5.82694 4.9903 6.16036C4.15829 6.49378 3.44603 7.08364 2.95038 7.84969C2.46326 8.57298 2.21195 9.43757 2.23286 10.3182V10.9896L1.64209 10.8982C0.970013 10.7946 0.903053 10.7649 0.903053 10.565C0.903053 10.4663 0.824126 10.3626 0.66388 10.2318C0.505946 10.1059 0.366556 9.95709 0.2501 9.7899C0.113369 9.59163 0.0536426 9.34765 0.0826906 9.10614C0.0826906 8.85929 0.0587657 8.38535 0.0300649 8.03236C-0.0137077 7.78053 -0.00964912 7.52231 0.0420207 7.27208C0.17244 7.08518 0.318068 6.91011 0.477318 6.74876C0.838469 6.36368 0.850434 6.33653 0.917403 5.89468C0.969597 5.39466 0.983189 4.89115 0.958058 4.38892L0.926965 3.33735H1.58469C2.76929 3.30769 3.9516 3.21458 5.12685 3.05842C5.41857 3.02709 5.70358 2.94792 5.97113 2.82392L6.21031 2.68074L7.44444 2.7943C8.1213 2.85601 8.72162 2.90784 8.77424 2.90784C8.82686 2.90784 8.88187 2.83132 8.91296 2.60669C8.9584 2.25617 8.97036 2.24383 9.47501 2.02167C9.92227 1.82419 10.3815 1.7921 10.6063 1.94515C10.7765 2.13165 10.904 2.35519 10.9794 2.59928C11.1468 3.01399 11.2377 3.16209 11.3286 3.18184C11.4195 3.20159 12.4384 3.30526 13.6414 3.42869C14.8445 3.55211 15.9064 3.65825 16.0068 3.67553L16.1862 3.70516L16.1623 3.10285C16.136 2.40428 16.2484 1.86862 16.4613 1.72545C16.6 1.62425 17.1166 1.6045 17.5375 1.68102C17.7361 1.71805 17.7767 1.75507 17.8246 1.92786C17.9083 2.22902 17.7648 2.97449 17.5854 3.13988C17.5132 3.20381 17.4636 3.29061 17.4443 3.38672C17.4443 3.68541 17.3079 3.6706 21.4433 3.78662C23.5839 3.84833 25.5403 3.89029 25.7914 3.88289L26.2482 3.86807L24.9256 2.96709C23.5241 2.01179 22.5769 1.48601 21.7015 1.15277C21.2232 0.97504 21.1682 0.940485 21.2017 0.824467C21.3045 0.46901 21.7757 0.155513 22.3449 0.0617114L22.7109 0L23.5193 0.461604C24.8491 1.21942 25.8488 1.85381 27.2599 2.83132L28.5945 3.75452L30.1826 3.79402C33.189 3.87054 35.4875 4.19391 37.597 4.84311C38.6781 5.17636 40.2566 5.8305 40.3451 5.9712C40.4322 6.32766 40.4322 6.70086 40.3451 7.05732L40.2614 7.38316L40.5795 7.83735C41.022 8.47421 41.0268 8.49149 40.9813 8.87163C40.9655 9.07688 40.8896 9.27232 40.7637 9.43198C40.5915 9.65414 40.5891 9.67882 40.6154 10.1947C40.6127 10.4107 40.65 10.6252 40.7254 10.8267C40.7971 10.9155 40.7708 10.9599 40.5221 11.1846C40.2734 11.4092 40.2279 11.4438 39.7017 11.4808C39.4075 11.503 39.0105 11.5203 38.8216 11.5203H38.4772L38.537 11.3549C38.5909 11.1116 38.623 10.8637 38.6326 10.6144C38.6754 9.95779 38.5747 9.29969 38.3379 8.6887C38.1011 8.07771 37.7343 7.52946 37.2646 7.08447C36.7903 6.6129 36.2175 6.25991 35.5903 6.05266C34.7725 5.84626 33.9194 5.83866 33.0982 6.03044C32.3679 6.24678 31.7053 6.65692 31.1766 7.21998C30.6478 7.78305 30.2713 8.47934 30.0846 9.23944C29.9267 9.96268 29.9267 10.7131 30.0846 11.4364C30.1516 11.698 30.2042 11.9301 30.2042 11.9301L30.2137 11.9177Z" fill="#404041"/>
</svg>
