<svg width="30" height="30" viewBox="0 0 30 30" fill="none" xmlns="http://www.w3.org/2000/svg">
<rect width="29.5481" height="30" fill="#FF0000" fill-opacity="0.01"/>
<path fill-rule="evenodd" clip-rule="evenodd" d="M16.0639 3.41909L24.7021 11.8394C25.1358 12.2638 25.2723 12.9131 25.0471 13.4803C24.8219 14.0475 24.2801 14.4191 23.6777 14.4195H22.9193V24.4999C22.9193 25.8807 21.8168 27 20.4568 27H9.62212C8.96905 27 8.34272 26.7366 7.88092 26.2677C7.41912 25.7989 7.15969 25.163 7.15969 24.4999V14.4195H6.39633C5.79487 14.4171 5.25489 14.0447 5.03096 13.478C4.80702 12.9112 4.94383 12.2632 5.37689 11.8394L14.0151 3.41909C14.5871 2.8603 15.4918 2.8603 16.0639 3.41909ZM13.0695 18.4997C13.0695 19.6043 13.9515 20.4997 15.0395 20.4997C16.1275 20.4997 17.0094 19.6043 17.0094 18.4997C17.0094 17.3951 16.1275 16.4996 15.0395 16.4996C13.9515 16.4996 13.0695 17.3951 13.0695 18.4997Z" fill="#D3D4ED"/>
<mask id="mask0_1_509" style="mask-type:luminance" maskUnits="userSpaceOnUse" x="4" y="3" width="22" height="24">
<path fill-rule="evenodd" clip-rule="evenodd" d="M16.0639 3.41909L24.7021 11.8394C25.1358 12.2638 25.2723 12.9131 25.0471 13.4803C24.8219 14.0475 24.2801 14.4191 23.6777 14.4195H22.9193V24.4999C22.9193 25.8807 21.8168 27 20.4568 27H9.62212C8.96905 27 8.34272 26.7366 7.88092 26.2677C7.41912 25.7989 7.15969 25.163 7.15969 24.4999V14.4195H6.39633C5.79487 14.4171 5.25489 14.0447 5.03096 13.478C4.80702 12.9112 4.94383 12.2632 5.37689 11.8394L14.0151 3.41909C14.5871 2.8603 15.4918 2.8603 16.0639 3.41909ZM13.0695 18.4997C13.0695 19.6043 13.9515 20.4997 15.0395 20.4997C16.1275 20.4997 17.0094 19.6043 17.0094 18.4997C17.0094 17.3951 16.1275 16.4996 15.0395 16.4996C13.9515 16.4996 13.0695 17.3951 13.0695 18.4997Z" fill="white"/>
</mask>
<g mask="url(#mask0_1_509)">
<rect width="29.5481" height="30" fill="#C1C0C9"/>
</g>
</svg>
