<svg width="44" height="44" viewBox="0 0 44 44" fill="none" xmlns="http://www.w3.org/2000/svg">
<path d="M3.66667 5.5H40.3333C42.3584 5.5 44 7.14162 44 9.16667V34.3551C44 36.3801 42.3584 38.0217 40.3333 38.0217H3.66667C1.64162 38.0217 0 36.3801 0 34.3551V9.16667C0 7.14162 1.64162 5.5 3.66667 5.5Z" fill="#243747"/>
<path d="M17.2174 29.4131C21.4436 29.4131 24.8696 25.9871 24.8696 21.7609C24.8696 17.5347 21.4436 14.1087 17.2174 14.1087C12.9912 14.1087 9.56525 17.5347 9.56525 21.7609C9.56525 25.9871 12.9912 29.4131 17.2174 29.4131Z" fill="#E61C24"/>
<path d="M26.7195 29.4131C30.9457 29.4131 34.3717 25.9871 34.3717 21.7609C34.3717 17.5347 30.9457 14.1087 26.7195 14.1087C22.4933 14.1087 19.0673 17.5347 19.0673 21.7609C19.0673 25.9871 22.4933 29.4131 26.7195 29.4131Z" fill="#F99F1B"/>
<path fill-rule="evenodd" clip-rule="evenodd" d="M21.9684 15.7692C20.1361 17.2178 19.0673 19.4251 19.0673 21.7609C19.0673 24.0966 20.1361 26.304 21.9684 27.7525C23.8008 26.304 24.8695 24.0966 24.8695 21.7609C24.8695 19.4251 23.8008 17.2178 21.9684 15.7692Z" fill="#F26622"/>
</svg>
