<svg width="30" height="30" viewBox="0 0 30 30" fill="none" xmlns="http://www.w3.org/2000/svg">
<rect width="29.5481" height="30" fill="#FF0000" fill-opacity="0.01"/>
<path fill-rule="evenodd" clip-rule="evenodd" d="M25.1159 9.97113H20.4414C20.7767 9.73863 21.0648 9.50763 21.2658 9.30063C22.458 8.08413 22.458 6.10413 21.2658 4.88763C20.1075 3.70263 18.0893 3.70563 16.9325 4.88763C16.2913 5.54013 14.5923 8.19663 14.8272 9.97113H14.7209C14.9543 8.19663 13.2553 5.54013 12.6156 4.88763C11.4573 3.70563 9.43913 3.70563 8.28232 4.88763C7.09154 6.10413 7.09154 8.08413 8.28085 9.30063C8.48325 9.50763 8.77134 9.73863 9.10672 9.97113H4.43221C3.61816 9.97113 2.9548 10.6446 2.9548 11.4711V13.7211C2.9548 14.1351 3.28574 14.4711 3.69351 14.4711H13.2966V11.4711H16.2514V14.4711H25.8546C26.2623 14.4711 26.5933 14.1351 26.5933 13.7211V11.4711C26.5933 10.6446 25.9314 9.97113 25.1159 9.97113ZM4.43221 15.9711V24.9711C4.43221 25.7991 5.09556 26.4711 5.90961 26.4711H13.2966V15.9711H4.43221ZM12.9361 9.97113C13.1474 9.97113 13.2095 9.92163 13.2095 9.92163C13.5537 9.56013 12.5638 6.96213 11.5681 5.94513C11.2682 5.63913 10.8707 5.47113 10.4497 5.47113C10.0271 5.47113 9.62972 5.63913 9.3298 5.94513C8.71077 6.57813 8.71077 7.61013 9.3298 8.24313C9.96657 8.89413 11.9153 9.97113 12.9361 9.97113ZM16.6105 9.97113C16.4007 9.97113 16.3386 9.92313 16.3386 9.92163C15.9944 9.56013 16.9842 6.96213 17.98 5.94513C18.5754 5.33463 19.617 5.33163 20.2183 5.94513C20.8388 6.57813 20.8388 7.61013 20.2183 8.24313C19.5815 8.89413 17.6328 9.97113 16.6105 9.97113ZM16.2514 26.4711V15.9711H25.1159V24.9711C25.1159 25.7991 24.454 26.4711 23.6385 26.4711H16.2514Z" fill="black"/>
<mask id="mask0_1_503" style="mask-type:luminance" maskUnits="userSpaceOnUse" x="2" y="4" width="25" height="23">
<path fill-rule="evenodd" clip-rule="evenodd" d="M25.1159 9.97113H20.4414C20.7767 9.73863 21.0648 9.50763 21.2658 9.30063C22.458 8.08413 22.458 6.10413 21.2658 4.88763C20.1075 3.70263 18.0893 3.70563 16.9325 4.88763C16.2913 5.54013 14.5923 8.19663 14.8272 9.97113H14.7209C14.9543 8.19663 13.2553 5.54013 12.6156 4.88763C11.4573 3.70563 9.43913 3.70563 8.28232 4.88763C7.09154 6.10413 7.09154 8.08413 8.28085 9.30063C8.48325 9.50763 8.77134 9.73863 9.10672 9.97113H4.43221C3.61816 9.97113 2.9548 10.6446 2.9548 11.4711V13.7211C2.9548 14.1351 3.28574 14.4711 3.69351 14.4711H13.2966V11.4711H16.2514V14.4711H25.8546C26.2623 14.4711 26.5933 14.1351 26.5933 13.7211V11.4711C26.5933 10.6446 25.9314 9.97113 25.1159 9.97113ZM4.43221 15.9711V24.9711C4.43221 25.7991 5.09556 26.4711 5.90961 26.4711H13.2966V15.9711H4.43221ZM12.9361 9.97113C13.1474 9.97113 13.2095 9.92163 13.2095 9.92163C13.5537 9.56013 12.5638 6.96213 11.5681 5.94513C11.2682 5.63913 10.8707 5.47113 10.4497 5.47113C10.0271 5.47113 9.62972 5.63913 9.3298 5.94513C8.71077 6.57813 8.71077 7.61013 9.3298 8.24313C9.96657 8.89413 11.9153 9.97113 12.9361 9.97113ZM16.6105 9.97113C16.4007 9.97113 16.3386 9.92313 16.3386 9.92163C15.9944 9.56013 16.9842 6.96213 17.98 5.94513C18.5754 5.33463 19.617 5.33163 20.2183 5.94513C20.8388 6.57813 20.8388 7.61013 20.2183 8.24313C19.5815 8.89413 17.6328 9.97113 16.6105 9.97113ZM16.2514 26.4711V15.9711H25.1159V24.9711C25.1159 25.7991 24.454 26.4711 23.6385 26.4711H16.2514Z" fill="white"/>
</mask>
<g mask="url(#mask0_1_503)">
<rect width="29.5481" height="30" fill="#C1C0C9"/>
</g>
</svg>
