<svg width="15" height="15" viewBox="0 0 15 15" fill="none" xmlns="http://www.w3.org/2000/svg">
<path d="M15 7.5C15 11.6421 11.6421 15 7.5 15C3.35786 15 0 11.6421 0 7.5C0 3.35786 3.35786 0 7.5 0C11.6421 0 15 3.35786 15 7.5ZM1.3907 7.5C1.3907 10.8741 4.12592 13.6093 7.5 13.6093C10.8741 13.6093 13.6093 10.8741 13.6093 7.5C13.6093 4.12592 10.8741 1.3907 7.5 1.3907C4.12592 1.3907 1.3907 4.12592 1.3907 7.5Z" fill="#497BDB"/>
<path d="M11.25 7.5C11.25 9.57107 9.57107 11.25 7.5 11.25C5.42893 11.25 3.75 9.57107 3.75 7.5C3.75 5.42893 5.42893 3.75 7.5 3.75C9.57107 3.75 11.25 5.42893 11.25 7.5ZM4.81003 7.5C4.81003 8.98563 6.01437 10.19 7.5 10.19C8.98563 10.19 10.19 8.98563 10.19 7.5C10.19 6.01437 8.98563 4.81003 7.5 4.81003C6.01437 4.81003 4.81003 6.01437 4.81003 7.5Z" fill="#497BDB"/>
</svg>
