<svg width="19" height="23" viewBox="0 0 19 23" fill="none" xmlns="http://www.w3.org/2000/svg">
<path d="M5.1234 15.4505H14.0071C15.7512 15.4505 17.178 14.0811 17.178 12.4074V3.88272C17.178 2.20903 15.7512 0.839613 14.0071 0.839613H13.837C13.7956 0.605618 13.6691 0.393123 13.4799 0.239539C13.2907 0.0859554 13.0509 0.00113089 12.8028 0H6.76494C6.51682 0.00120904 6.27709 0.0860615 6.08792 0.239631C5.89875 0.393201 5.77226 0.605652 5.7307 0.839613H5.1234C3.37926 0.839613 1.95202 2.20903 1.95202 3.88272V12.4074C1.95202 14.0811 3.37802 15.4505 5.1234 15.4505ZM13.8523 13.2672C13.6264 13.2679 13.4054 13.2045 13.2172 13.085C13.029 12.9655 12.8822 12.7952 12.7952 12.5958C12.7082 12.3964 12.6851 12.1768 12.7287 11.9648C12.7723 11.7528 12.8808 11.558 13.0402 11.4049C13.1997 11.2519 13.4031 11.1476 13.6246 11.1052C13.8461 11.0628 14.0758 11.0842 14.2845 11.1667C14.4933 11.2492 14.6718 11.3891 14.7974 11.5687C14.923 11.7483 14.99 11.9595 14.99 12.1756C14.9903 12.3187 14.9611 12.4604 14.9041 12.5927C14.8471 12.725 14.7634 12.8453 14.6578 12.9467C14.5522 13.048 14.4267 13.1285 14.2886 13.1835C14.1505 13.2385 14.0024 13.267 13.8528 13.2672H13.8523ZM3.96464 4.11497C3.96507 3.84837 4.07577 3.59276 4.27257 3.40395C4.46936 3.21513 4.73627 3.10845 5.01501 3.1072H13.9405C14.2192 3.10846 14.486 3.21515 14.6828 3.40397C14.8795 3.5928 14.9901 3.84841 14.9904 4.11497V7.1379C14.9901 7.40446 14.8795 7.66008 14.6828 7.8489C14.486 8.03772 14.2192 8.14442 13.9405 8.14567H5.01501C4.73627 8.14442 4.46936 8.03774 4.27257 7.84892C4.07577 7.66011 3.96507 7.4045 3.96464 7.1379V4.11497ZM5.1023 11.1686C5.32822 11.1679 5.54927 11.2313 5.73747 11.3509C5.92567 11.4704 6.07254 11.6407 6.15949 11.8401C6.24644 12.0395 6.26955 12.2592 6.2259 12.4712C6.18224 12.6832 6.07379 12.878 5.91427 13.031C5.75476 13.184 5.55135 13.2883 5.32982 13.3307C5.10828 13.3731 4.87858 13.3516 4.66981 13.269C4.46104 13.1864 4.28259 13.0465 4.15706 12.8668C4.03153 12.6872 3.96456 12.4759 3.96464 12.2599C3.96437 12.1167 3.99358 11.9749 4.05061 11.8426C4.10764 11.7103 4.19137 11.59 4.29702 11.4886C4.40267 11.3872 4.52816 11.3068 4.66633 11.2518C4.80451 11.1968 4.95265 11.1684 5.1023 11.1682V11.1686Z" fill="black"/>
<path d="M14.3874 15.8243H13.6601L14.2227 17.0779H5.17015L5.77865 15.8243H4.99215L0 22.6774H2.45178L3.26311 21.0059H15.984L16.7341 22.6774H19L14.3874 15.8243ZM4.11501 19.2508L4.76448 17.9117H14.5965L15.1967 19.2508H4.11501Z" fill="black"/>
</svg>
