<svg width="41" height="14" viewBox="0 0 41 14" fill="none" xmlns="http://www.w3.org/2000/svg">
<path d="M0.176929 10.2733C0.265719 10.4428 0.375315 10.6031 0.50373 10.7514L0.550046 10.8037L0.604088 10.8652L0.65298 10.9198L0.694144 10.9654C0.709583 10.9813 0.725018 10.995 0.737884 11.0109L0.78164 11.0541C0.797079 11.0724 0.815095 11.0883 0.833107 11.1065L0.894861 11.168L0.93345 11.2044L0.97463 11.2431L1.01064 11.2772L1.04925 11.3114L1.10843 11.366L1.14188 11.3956L1.1702 11.4207L1.1985 11.4457L1.2268 11.4708C1.23601 11.4778 1.24461 11.4854 1.25252 11.4935L1.28084 11.5163L1.29628 11.5277V11.5413L5.51632 12.0331H6.01294C6.15259 12.5781 6.49253 13.0668 6.97954 13.4227C7.46656 13.7786 8.07319 13.9816 8.70452 14C8.78429 14 8.86663 14 8.9464 14C9.31481 13.9997 9.6801 13.9403 10.0246 13.8247C10.1918 13.7764 10.3531 13.7131 10.5058 13.6357L10.408 13.6676C11.1073 13.3256 11.6253 12.7527 11.849 12.074H12.3636H12.6956L30.4506 11.8464H30.8726C30.9795 12.4253 31.3101 12.9535 31.8079 13.3408C32.3058 13.7281 32.9402 13.9507 33.6028 13.9704C33.6826 13.9704 33.7623 13.9704 33.8447 13.9704C34.2131 13.9701 34.5784 13.9107 34.9229 13.7951C35.0895 13.7473 35.25 13.684 35.4015 13.6061L35.3063 13.638C35.6637 13.4625 35.9775 13.225 36.2291 12.9399C36.4806 12.6548 36.6647 12.3278 36.7704 11.9784L37.2619 11.9898C37.2619 11.9898 40.2211 11.6961 40.517 11.3364C40.5599 11.2982 40.5925 11.2519 40.6125 11.201C40.6324 11.15 40.6392 11.0958 40.6323 11.0423C40.6254 10.9887 40.605 10.9372 40.5725 10.8916C40.5401 10.846 40.4965 10.8074 40.4449 10.7787V10.7559C40.4449 10.6671 40.4861 10.3143 40.5144 9.86806C40.7177 9.75423 41.1757 9.35584 40.9287 8.12423C40.9203 8.00367 40.8722 7.88794 40.7903 7.79126C40.7085 7.69459 40.5965 7.62119 40.4681 7.58013C40.4565 7.54108 40.4374 7.5041 40.4115 7.47086C40.0795 7.07929 38.2654 5.83402 35.5636 5.27854C34.606 5.06869 33.6263 4.94738 32.6404 4.91656C32.6404 4.91656 30.8623 4.06514 28.5696 3.01793C26.2769 1.97071 24.7098 0.766412 20.9452 0.463631C16.8281 0.138085 12.4691 -0.219329 8.07923 0.169961C3.68935 0.559251 2.71154 0.889345 2.71154 0.889345C2.71154 0.889345 1.93958 1.97071 1.23195 4.19718C0.959191 5.06227 0.786778 5.70881 0.67613 6.17778H0.658116L0.449687 7.19539L0.48314 8.00584H0.526896V8.0286L0.0456928 8.48391C0.0456928 8.48391 -0.118989 9.68594 0.176929 10.2733ZM32.0357 11.3364C32.0357 11.0136 32.1439 10.698 32.3467 10.4296C32.5494 10.1612 32.8375 9.95195 33.1747 9.8284C33.5118 9.70486 33.8827 9.67253 34.2406 9.73551C34.5985 9.7985 34.9273 9.95396 35.1853 10.1822C35.4433 10.4105 35.619 10.7014 35.6902 11.018C35.7614 11.3346 35.7249 11.6628 35.5853 11.9611C35.4456 12.2593 35.2091 12.5143 34.9057 12.6936C34.6023 12.873 34.2456 12.9687 33.8807 12.9687C33.3914 12.9687 32.9221 12.7967 32.5761 12.4906C32.2301 12.1845 32.0357 11.7693 32.0357 11.3364ZM25.0469 2.60359C25.1112 2.48977 26.2306 2.97466 27.7796 3.81926C28.9119 4.44076 30.0055 5.18519 30.0055 5.18519L29.6349 5.46976L28.1116 5.33317C28.1116 5.33317 27.8285 5.05999 27.2676 4.50906C25.8986 3.16818 24.9723 2.74246 25.0469 2.61269V2.60359ZM18.6139 1.11246C18.6139 1.11246 20.4152 1.27636 21.7018 1.49036C22.4494 1.60598 23.1736 1.81927 23.8504 2.12325L25.4792 3.69406L26.6629 5.20113L19.6483 4.92794L18.6139 1.11246ZM9.83158 4.57736C9.83158 4.57736 10.0091 3.25014 10.1944 2.46473C10.3124 1.97219 10.461 1.48578 10.6396 1.00773C10.6396 1.00773 11.3781 0.941713 13.5627 0.925778C14.8231 0.912688 16.0834 0.962083 17.3376 1.07375L17.7622 4.88924L13.483 4.77314L9.83158 4.57736ZM7.12714 11.3364C7.12664 11.013 7.23462 10.6966 7.43744 10.4275C7.64026 10.1583 7.92879 9.94845 8.26649 9.82446C8.60419 9.70046 8.97588 9.6679 9.33451 9.7309C9.69314 9.7939 10.0226 9.94961 10.2811 10.1783C10.5397 10.4071 10.7157 10.6986 10.7869 11.0158C10.8581 11.3331 10.8213 11.662 10.6811 11.9607C10.541 12.2595 10.3038 12.5148 9.99955 12.6942C9.69533 12.8736 9.33775 12.9692 8.97212 12.9687C8.4828 12.9687 8.01353 12.7967 7.66753 12.4906C7.32152 12.1845 7.12714 11.7693 7.12714 11.3364ZM4.86273 1.54727C5.66042 1.09196 8.73796 0.91894 9.42243 1.01683C9.81356 1.07375 9.40442 1.80224 9.31179 2.38276C9.21915 2.96328 9.16254 3.82382 8.92323 3.93765C8.68392 4.05148 7.60576 4.01732 6.55333 3.98773C4.85244 3.93764 3.75883 3.67585 3.70479 3.39811C3.65075 3.12037 4.06761 2.02307 4.86273 1.56549V1.54727Z" fill="#404041"/>
</svg>
