<svg width="21" height="19" viewBox="0 0 21 19" fill="none" xmlns="http://www.w3.org/2000/svg">
<path d="M20.377 1.1253L19.7673 0.571678C19.3613 0.205508 18.8124 0 18.2402 0C17.668 0 17.119 0.205508 16.7131 0.571678L14.0768 2.96551L5.03151 1.80108C4.81659 1.78419 4.60014 1.80728 4.39539 1.86895C4.19064 1.93062 4.00192 2.02959 3.84074 2.15977L3.0278 2.86675C2.96454 2.91511 2.91618 2.97754 2.88744 3.04795C2.8587 3.11835 2.85055 3.19433 2.86382 3.26844C2.87709 3.34256 2.91131 3.41229 2.96313 3.47081C3.01495 3.52932 3.08261 3.57463 3.15948 3.60231L9.94916 6.70572L4.79678 11.3842L2.16908 11.2101C1.72812 11.2029 1.30057 11.3478 0.972582 11.6156L0.182548 12.3329C0.118017 12.385 0.0680749 12.4503 0.036841 12.5234C0.00560709 12.5965 -0.00602088 12.6753 0.00293002 12.7532C0.0118809 12.8312 0.0411483 12.9061 0.0883102 12.9718C0.135472 13.0375 0.199175 13.092 0.274148 13.1309L3.42282 14.9919C3.79966 15.2327 4.12793 15.5308 4.39319 15.873L6.45412 18.7529C6.49738 18.8205 6.55763 18.8779 6.62993 18.9204C6.70224 18.9628 6.78457 18.9892 6.87023 18.9973C6.95589 19.0054 7.04244 18.9951 7.12284 18.967C7.20324 18.939 7.27521 18.8941 7.33289 18.8361L8.12579 18.1161C8.41825 17.818 8.5775 17.4314 8.57233 17.0322L8.39773 14.7735L13.5844 10.0612L16.9392 16.0965C16.9693 16.1667 17.0192 16.2285 17.0837 16.2757C17.1483 16.323 17.2254 16.3541 17.3073 16.3659C17.3892 16.3778 17.4731 16.3699 17.5507 16.3432C17.6282 16.3164 17.6967 16.2717 17.7493 16.2135L18.5422 15.4935C18.6853 15.3476 18.7942 15.1766 18.8621 14.9912C18.93 14.8057 18.9556 14.6096 18.9372 14.4149L17.6806 6.33664L20.377 3.89082C20.7763 3.52189 21 3.02532 21 2.50806C21 1.9908 20.7763 1.49423 20.377 1.1253ZM19.7301 3.22283C19.5097 3.42037 19.5498 2.703 18.6996 1.92325C17.8495 1.14349 17.1367 1.25786 17.3571 1.06032C17.9296 0.540485 18.5479 0.540485 19.0746 1.00314L19.8245 1.68412C20.3341 2.16237 20.3111 2.6926 19.7301 3.22283Z" fill="black"/>
</svg>
