<svg width="18" height="18" viewBox="0 0 18 18" fill="none" xmlns="http://www.w3.org/2000/svg">
<path fill-rule="evenodd" clip-rule="evenodd" d="M0 8.99999C0 4.02991 3.92674 0 8.76959 0C13.6124 0 17.5392 4.02991 17.5392 8.99999C17.5392 13.9701 13.6124 18 8.76959 18C3.92674 18 0 13.9701 0 8.99999ZM13.0996 12.2585C13.0996 12.1741 13.0683 12.0937 13.0095 12.0335L10.0498 8.98392L13.0213 5.97053C13.1427 5.84598 13.1427 5.64107 13.0213 5.51651L12.1756 4.64464C12.1169 4.58437 12.0386 4.55223 11.9564 4.55223C11.8742 4.55223 11.7959 4.58437 11.7372 4.64464L8.77352 7.64597L5.80986 4.64464C5.75114 4.58437 5.67284 4.55223 5.59062 4.55223C5.50841 4.55223 5.43011 4.58437 5.37138 4.64464L4.52575 5.51651C4.40438 5.64107 4.40438 5.84598 4.52575 5.97053L7.49723 8.98392L4.53358 12.0375C4.47485 12.0937 4.44353 12.1781 4.44353 12.2625C4.44353 12.3469 4.47485 12.4272 4.53358 12.4875L5.37921 13.3594C5.43794 13.4196 5.52015 13.4518 5.59845 13.4518C5.67675 13.4518 5.75897 13.4236 5.81769 13.3594L8.7696 10.3178L11.7254 13.3553C11.7841 13.4156 11.8664 13.4478 11.9447 13.4478C12.023 13.4478 12.1013 13.4196 12.1639 13.3553L13.0095 12.4835C13.0683 12.4272 13.0996 12.3428 13.0996 12.2585Z" fill="#C8C7CC"/>
</svg>
