<svg width="41" height="14" viewBox="0 0 41 14" fill="none" xmlns="http://www.w3.org/2000/svg">
<path d="M0 9.72503C0 9.72503 1.12774 10.8648 2.11506 11.2129C2.75352 11.4384 4.048 11.7717 4.87954 11.9752L5.19768 12.0561C5.50615 12.6068 5.92859 13.0667 6.4294 13.3969C6.93022 13.7272 7.49473 13.9182 8.07541 13.9537C8.65609 13.9893 9.23592 13.8684 9.76604 13.6013C10.2962 13.3342 10.7611 12.9286 11.1216 12.4188L11.6196 12.4311C16.7932 12.5781 23.3643 12.6982 28.9832 12.784H29.4221C30.0936 13.5493 31.0091 13.9864 31.9683 13.9997C32.9275 14.013 33.8524 13.6015 34.5407 12.8551H35.0761C38.6282 12.9017 41 12.9262 41 12.9262L40.9079 10.5707L41 8.91371C41 8.91371 40.943 8.91371 40.8464 8.94312L40.8223 8.33278C40.8223 8.33278 40.7784 8.25435 40.6819 8.11709C39.6448 6.74888 38.2872 5.73038 36.7611 5.17573C33.0027 3.78349 27.0525 3.90359 26.5106 3.9183L26.5435 3.93791H23.8602C23.2053 3.39539 22.5176 2.904 21.8022 2.46723C20.767 1.89293 19.7059 1.37913 18.623 0.927916L18.9806 0.533288C18.2574 0.305507 17.5172 0.151273 16.769 0.0724738C13.094 -0.23882 10.7727 0.50632 8.65109 1.28578C7.18767 1.82258 5.36003 2.84716 3.6048 3.10698C2.65917 3.24669 0.588001 3.10698 0.588001 3.10698L0.552889 3.52122L0.430023 4.92816L0.318138 6.18804L0 9.72503ZM28.9394 9.94318C28.9394 9.26447 29.1195 8.60101 29.457 8.03669C29.7945 7.47237 30.2743 7.03254 30.8356 6.77281C31.3968 6.51308 32.0144 6.44512 32.6103 6.57753C33.2061 6.70994 33.7534 7.03677 34.183 7.51669C34.6126 7.9966 34.9051 8.60805 35.0237 9.27371C35.1422 9.93937 35.0813 10.6293 34.8489 11.2564C34.6164 11.8834 34.2227 12.4194 33.7175 12.7964C33.2124 13.1735 32.6185 13.3748 32.011 13.3748C31.1964 13.3748 30.4151 13.0132 29.839 12.3697C29.263 11.7261 28.9394 10.8533 28.9394 9.94318ZM13.4187 1.59217C13.4187 1.59217 15.7181 1.10195 17.4382 1.57992C18.9214 1.99171 21.6376 3.52122 21.6376 3.52122C20.9794 3.52122 18.3926 3.41581 16.3719 3.32512C15.8059 3.30061 14.1208 3.08001 14.1208 3.08001L13.4187 1.59217ZM9.51335 2.37899C9.51335 2.37899 11.7403 1.88876 12.3283 1.79807L12.7847 2.96726L9.51335 2.37899ZM5.19329 9.89906C5.19329 9.22036 5.37344 8.55689 5.71096 7.99257C6.04847 7.42825 6.5282 6.98841 7.08947 6.72869C7.65075 6.46896 8.26835 6.40101 8.86419 6.53341C9.46003 6.66582 10.0073 6.99264 10.4369 7.47256C10.8665 7.95248 11.1591 8.56393 11.2776 9.22959C11.3961 9.89525 11.3353 10.5852 11.1028 11.2123C10.8703 11.8393 10.4766 12.3752 9.97147 12.7523C9.46634 13.1294 8.87246 13.3306 8.26494 13.3306C7.45105 13.3293 6.67089 12.9672 6.0958 12.3238C5.5207 11.6804 5.19768 10.8083 5.19768 9.89906H5.19329Z" fill="#404041"/>
</svg>
