<svg width="30" height="30" viewBox="0 0 30 30" fill="none" xmlns="http://www.w3.org/2000/svg">
<rect width="29.5481" height="30" fill="#FF0000" fill-opacity="0.01"/>
<path opacity="0.3" fill-rule="evenodd" clip-rule="evenodd" d="M9.34379 21.5C9.34379 20.782 8.82311 20.2 8.12203 20.2C7.42094 20.2 6.89865 20.782 6.89865 21.5V22.8C6.89865 25.6719 9.00683 28 11.8112 28H19.7016C22.506 28 24.6234 25.6719 24.6234 22.8V7.2C24.6234 4.32812 22.3501 2 19.5457 2H11.8112C9.00683 2 6.89865 4.32812 6.89865 7.2V8.50001C6.89865 9.21798 7.41213 9.80001 8.11321 9.80001C8.81429 9.80001 9.38263 9.21798 9.38263 8.50001V7.2C9.38263 5.76406 10.409 4.48282 11.8112 4.48282L19.7016 4.53265C21.1038 4.53265 22.202 5.76406 22.202 7.2V22.8C22.202 24.2359 21.1038 25.5023 19.7016 25.5023H11.8112C10.409 25.5023 9.34379 24.2359 9.34379 22.8V21.5ZM20.0236 14.1137C20.514 14.6235 20.503 15.4224 19.9908 15.9192L15.9698 19.8192C15.4464 20.3269 14.5977 20.3269 14.0743 19.8192C13.5509 19.3116 13.5509 18.4884 14.0743 17.9808L16.3996 15.7254L4.93975 15.7254C4.38747 15.7254 3.93975 15.2777 3.93975 14.7254V14.1254C3.93975 13.5732 4.38747 13.1254 4.93975 13.1254L15.2148 13.1254L14.0743 12.0192C13.5509 11.5116 13.5509 10.6884 14.0743 10.1808C14.5977 9.67308 15.4464 9.67308 15.9698 10.1808L19.0058 13.1254H19.0237C19.572 13.1254 20.0173 13.5668 20.0236 14.1137Z" fill="black"/>
<mask id="mask0_1_506" style="mask-type:luminance" maskUnits="userSpaceOnUse" x="3" y="2" width="22" height="26">
<path fill-rule="evenodd" clip-rule="evenodd" d="M9.34379 21.5C9.34379 20.782 8.82311 20.2 8.12203 20.2C7.42094 20.2 6.89865 20.782 6.89865 21.5V22.8C6.89865 25.6719 9.00683 28 11.8112 28H19.7016C22.506 28 24.6234 25.6719 24.6234 22.8V7.2C24.6234 4.32812 22.3501 2 19.5457 2H11.8112C9.00683 2 6.89865 4.32812 6.89865 7.2V8.50001C6.89865 9.21798 7.41213 9.80001 8.11321 9.80001C8.81429 9.80001 9.38263 9.21798 9.38263 8.50001V7.2C9.38263 5.76406 10.409 4.48282 11.8112 4.48282L19.7016 4.53265C21.1038 4.53265 22.202 5.76406 22.202 7.2V22.8C22.202 24.2359 21.1038 25.5023 19.7016 25.5023H11.8112C10.409 25.5023 9.34379 24.2359 9.34379 22.8V21.5ZM20.0236 14.1137C20.514 14.6235 20.503 15.4224 19.9908 15.9192L15.9698 19.8192C15.4464 20.3269 14.5977 20.3269 14.0743 19.8192C13.5509 19.3116 13.5509 18.4884 14.0743 17.9808L16.3996 15.7254L4.93975 15.7254C4.38747 15.7254 3.93975 15.2777 3.93975 14.7254V14.1254C3.93975 13.5732 4.38747 13.1254 4.93975 13.1254L15.2148 13.1254L14.0743 12.0192C13.5509 11.5116 13.5509 10.6884 14.0743 10.1808C14.5977 9.67308 15.4464 9.67308 15.9698 10.1808L19.0058 13.1254H19.0237C19.572 13.1254 20.0173 13.5668 20.0236 14.1137Z" fill="white"/>
</mask>
<g mask="url(#mask0_1_506)">
<rect width="29.5481" height="30" fill="#C1C0C9"/>
</g>
</svg>
